<?xml version="1.0" encoding="UTF-8"?>
<svg id="Layer_1" data-name="Layer 1" xmlns="http://www.w3.org/2000/svg" viewBox="0 0 1029.1 249.66">
  <defs>
    <style>
      .cls-1 {
        fill: #1a6c60;
      }

      .cls-2 {
        fill: #0a2621;
      }
    </style>
  </defs>
  <polygon class="cls-2" points="106.66 193.76 105.97 193.76 44.58 0 0 0 81.62 244.86 129.29 244.86 212.97 0 169.41 0 106.66 193.76"/>
  <polygon class="cls-1" points="425.26 67.56 479.78 244.86 518.87 244.86 464.35 67.56 425.26 67.56"/>
  <path class="cls-2" d="M413.77,155.35c-5.38-3.88-11.49-6.97-18.35-9.26-6.86-2.28-13.84-4.23-20.92-5.83-7.32-1.6-14.4-3.09-21.26-4.46-6.86-1.37-12.98-3.03-18.35-4.97-5.38-1.94-9.72-4.4-13.03-7.37-3.32-2.97-4.97-6.86-4.97-11.66,0-3.89,1.14-7.03,3.43-9.43,2.28-2.4,5.08-4.23,8.4-5.49,3.31-1.25,6.86-2.11,10.63-2.57,3.77-.46,7.03-.68,9.78-.68,8.69,0,16.4,1.6,23.15,4.8,6.74,3.2,11.03,9.49,12.86,18.86h40.81c-1.15-9.83-3.94-18.23-8.4-25.21-4.46-6.97-10.06-12.63-16.8-16.97-6.75-4.34-14.29-7.49-22.64-9.43-8.35-1.94-17.09-2.92-26.24-2.92-8,0-16.41.8-25.21,2.4-8.8,1.6-16.8,4.41-24.01,8.4-7.2,4-13.15,9.26-17.83,15.77-4.69,6.51-7.03,14.58-7.03,24.18,0,8.92,1.6,16.41,4.8,22.46,3.2,6.06,7.49,11.03,12.86,14.92,5.37,3.89,11.43,6.98,18.18,9.26,6.74,2.29,13.77,4.23,21.09,5.83,7.08,1.6,14.06,3.09,20.92,4.46,6.86,1.37,12.98,3.03,18.35,4.97,5.37,1.94,9.78,4.52,13.2,7.72,3.43,3.2,5.26,7.32,5.49,12.35.23,5.03-.97,9.09-3.6,12.17-2.63,3.09-6,5.44-10.12,7.03-4.12,1.6-8.52,2.69-13.2,3.26-4.69.57-8.86.86-12.52.86-10.52,0-19.55-2.28-27.09-6.86-7.55-4.57-11.89-12.57-13.03-24.01h-39.1c.23,10.52,2.34,19.61,6.35,27.26,4,7.66,9.48,14.06,16.46,19.21,6.97,5.14,15.2,8.97,24.69,11.49,9.49,2.51,19.83,3.77,31.04,3.77,9.14,0,18.4-1.03,27.78-3.09,9.37-2.06,17.89-5.37,25.55-9.95,7.66-4.57,13.89-10.51,18.69-17.83,4.8-7.31,7.2-16.23,7.2-26.75,0-8.69-1.66-16-4.97-21.95-3.32-5.94-7.66-10.86-13.03-14.75Z"/>
  <rect class="cls-2" x="223.94" y="2.4" width="39.1" height="37.04"/>
  <rect class="cls-2" x="223.94" y="69.96" width="39.1" height="177.3"/>
  <path class="cls-2" d="M684.52,90.36c-6.86-8.57-15.49-15.31-25.89-20.23-10.41-4.91-22.58-7.37-36.52-7.37-5.03,0-10.12.63-15.26,1.89-5.14,1.26-10.06,3.09-14.75,5.49-4.69,2.4-8.98,5.32-12.86,8.75-3.89,3.43-7.2,7.32-9.95,11.66h-.68V0h-39.1v244.86h37.04v-24.35h.69c2.97,5.95,6.69,10.75,11.14,14.4,4.46,3.66,9.43,6.64,14.92,8.92,5.49,2.28,11.26,3.82,17.32,4.63,6.05.8,12.06,1.2,18,1.2,13.03,0,24.35-2.57,33.95-7.71,9.6-5.15,17.55-12,23.83-20.58,6.29-8.57,10.97-18.46,14.06-29.67,3.09-11.2,4.63-22.75,4.63-34.64,0-13.03-1.71-25.26-5.14-36.7-3.43-11.43-8.57-21.43-15.43-30.01ZM663.43,179.19c-1.71,7.43-4.58,14.06-8.57,19.89-4,5.83-9.09,10.58-15.26,14.23-6.17,3.66-13.72,5.49-22.64,5.49-8,0-15.04-1.6-21.09-4.8-6.06-3.2-11.26-7.55-15.61-13.03-4.35-5.49-7.6-12.06-9.77-19.72-2.18-7.66-3.26-15.95-3.26-24.87,0-18.97,4.17-34.18,12.52-45.61,8.34-11.43,20.75-17.15,37.21-17.15,8,0,15.09,1.77,21.26,5.32,6.17,3.55,11.32,8.23,15.43,14.06,4.12,5.83,7.2,12.52,9.26,20.06,2.06,7.55,3.09,15.32,3.09,23.32s-.86,15.38-2.57,22.81Z"/>
  <rect class="cls-2" x="731.16" width="39.1" height="244.86"/>
  <path class="cls-2" d="M947.22,94.65c-7.32-9.6-16.52-17.32-27.61-23.15-11.09-5.83-23.61-8.75-37.55-8.75s-25.15,2.52-35.67,7.55c-10.52,5.03-19.49,11.83-26.92,20.41-7.43,8.58-13.15,18.52-17.15,29.84-4,11.32-6,23.27-6,35.84,0,13.72,1.89,26.3,5.66,37.73,3.77,11.44,9.37,21.26,16.8,29.49,7.43,8.23,16.52,14.63,27.26,19.2,10.75,4.57,23.09,6.86,37.04,6.86,9.6,0,18.8-1.32,27.61-3.94,8.8-2.63,16.74-6.52,23.83-11.66,7.08-5.14,13.14-11.49,18.18-19.03,5.03-7.55,8.57-16.12,10.63-25.72h-37.04c-3.43,9.84-8.63,17.21-15.6,22.12-6.98,4.92-16.18,7.37-27.61,7.37-8.23,0-15.32-1.43-21.26-4.28-5.95-2.86-10.86-6.69-14.75-11.49-3.89-4.8-6.81-10.4-8.75-16.8-1.94-6.4-2.91-13.03-2.91-19.89h130.32c1.6-13.26.74-26.12-2.57-38.58-3.32-12.46-8.63-23.49-15.95-33.09ZM835.41,140.61c.23-6.63,1.54-12.8,3.94-18.52,2.4-5.71,5.6-10.69,9.6-14.92,4-4.23,8.8-7.55,14.4-9.94,5.6-2.4,11.83-3.6,18.69-3.6s12.63,1.32,18,3.94c5.37,2.63,9.94,6.06,13.72,10.29,3.77,4.23,6.74,9.21,8.92,14.92,2.17,5.72,3.48,11.66,3.94,17.83h-91.22Z"/>
  <rect class="cls-1" x="981.21" y="196.97" width="47.88" height="47.88"/>
</svg>