<svg width="748" height="150" viewBox="0 0 748 150" fill="none" xmlns="http://www.w3.org/2000/svg">
<g clip-path="url(#clip0_3114_5220)">
<path d="M225.215 42.3527C219.646 39.1549 213.272 37.5234 206.268 37.5234C199.263 37.5234 192.911 39.1114 187.342 42.2657C186.233 42.8965 185.188 43.5491 184.21 44.267V38.5458H169.004V142.484H184.471V106.221C185.471 106.939 186.537 107.591 187.647 108.222C193.107 111.289 199.393 112.834 206.289 112.834C213.185 112.834 219.668 111.202 225.237 108.005C230.849 104.763 235.287 100.217 238.397 94.4739C241.465 88.818 243.031 82.3137 243.031 75.1786C243.031 68.0435 241.465 61.561 238.397 55.9051C235.265 50.1404 230.849 45.594 225.237 42.3744L225.215 42.3527ZM224.78 87.2083C222.952 90.58 220.494 93.1034 217.253 94.9525C213.946 96.8233 210.27 97.7369 206.006 97.7369C201.743 97.7369 197.979 96.8233 194.716 94.9525C191.519 93.1034 189.061 90.58 187.255 87.2083C185.406 83.793 184.471 79.7468 184.471 75.1569C184.471 70.5669 185.406 66.5208 187.255 63.1055C189.082 59.7337 191.519 57.2103 194.716 55.3612C197.979 53.4905 201.678 52.5768 206.006 52.5768C210.335 52.5768 213.946 53.4905 217.253 55.3612C220.494 57.2103 222.952 59.7337 224.78 63.0837C226.629 66.499 227.564 70.5451 227.564 75.1351C227.564 79.7251 226.629 83.7712 224.78 87.1865V87.2083Z" fill="#111111"/>
<path d="M302.463 42.1777C298.069 39.3498 292.804 37.9141 286.822 37.9141C280.84 37.9141 275.88 39.5238 271.247 42.6998C270.877 42.9609 270.507 43.2219 270.137 43.5047V38.5667H254.932V111.832H270.398V74.3075C270.398 70.2396 271.16 66.6286 272.726 63.2786C274.227 60.059 276.206 57.6227 278.795 55.8171C281.232 54.0986 283.82 53.272 286.692 53.272C289.563 53.272 292.348 53.9681 294.719 55.3821L299.287 58.1012L306.357 44.7011L302.463 42.1995V42.1777Z" fill="#111111"/>
<path d="M359.843 42.2851C354.187 39.0439 347.726 37.3906 340.634 37.3906C333.543 37.3906 327.213 39.0439 321.578 42.2851C315.879 45.5482 311.376 50.1381 308.178 55.9028C305.002 61.6239 303.393 68.1065 303.393 75.1763C303.393 82.2462 305.002 88.7287 308.178 94.4281C311.376 100.215 315.901 104.783 321.578 108.046C327.234 111.287 333.652 112.94 340.634 112.94C347.617 112.94 354.187 111.287 359.843 108.046C365.52 104.783 370.045 100.193 373.243 94.4281C376.419 88.7069 378.029 82.2244 378.029 75.1763C378.029 68.1282 376.419 61.6457 373.243 55.9028C370.023 50.1381 365.52 45.5482 359.843 42.2851ZM359.69 86.8579C357.776 90.2949 355.231 92.9271 351.903 94.8632C348.574 96.7992 344.876 97.7564 340.634 97.7564C336.393 97.7564 332.716 96.7992 329.366 94.8632C326.06 92.9271 323.536 90.3167 321.665 86.9014C319.751 83.3991 318.838 79.5705 318.838 75.1981C318.838 70.8256 319.773 66.997 321.665 63.4947C323.536 60.0794 326.06 57.469 329.366 55.533C332.716 53.5969 336.393 52.6398 340.634 52.6398C344.876 52.6398 348.553 53.5969 351.903 55.533C355.231 57.469 357.776 60.1012 359.69 63.5382C361.627 67.0188 362.562 70.8474 362.562 75.2198C362.562 79.5923 361.627 83.4209 359.69 86.9014V86.8579Z" fill="#111111"/>
<path d="M404.546 54.9674C407.265 53.3141 411.442 52.4875 416.967 52.4875C420.817 52.4875 424.146 52.9661 426.865 53.9232C429.584 54.8804 432.303 56.4249 434.892 58.535L438.829 61.711L448.162 50.0294L444.333 46.8534C440.483 43.6774 436.284 41.2845 431.868 39.7182C427.474 38.1737 422.405 37.3906 416.837 37.3906C408.005 37.3906 400.804 39.2179 395.366 42.8507C389.384 46.8316 386.208 52.618 386.208 59.5791C386.208 63.908 387.317 67.6061 389.493 70.5646C391.581 73.4143 394.866 75.7419 399.216 77.5039C403.045 79.0484 408.135 80.4189 414.705 81.6806C420.121 82.7248 424.276 83.7689 427.039 84.7913C429.997 85.879 431.042 86.8579 431.346 87.2495C431.52 87.467 432.086 88.1414 432.086 89.9034C432.086 91.4261 431.694 93.2317 428.844 95.0154C425.93 96.8427 421.796 97.7564 416.554 97.7564C412.312 97.7564 408.309 96.995 404.698 95.4723C401.152 93.993 398.303 92.0135 396.171 89.6206L392.473 85.4439L382.357 96.3424L385.142 99.7577C388.383 103.695 392.886 106.936 398.564 109.373C404.111 111.766 410.158 112.984 416.532 112.984C425.299 112.984 432.564 111.026 438.133 107.154C444.202 102.955 447.4 97.0168 447.4 90.0339C447.4 85.5527 446.225 81.6806 443.92 78.5263C441.701 75.5244 438.264 73.0662 433.674 71.2172C429.606 69.5857 424.255 68.1717 417.359 66.91C412.377 65.9529 408.57 64.9957 406.069 64.0603C403.436 63.0814 402.501 62.2113 402.218 61.885C401.827 61.4282 401.631 60.645 401.631 59.6009C401.631 58.0999 401.979 56.4901 404.481 54.9674H404.546Z" fill="#111111"/>
<path d="M514.928 42.3527C509.359 39.1549 502.985 37.5234 495.98 37.5234C488.976 37.5234 482.624 39.1114 477.055 42.2657C475.946 42.8965 474.901 43.5491 473.922 44.267V38.5458H458.717V142.484H474.183V106.221C475.184 106.939 476.25 107.591 477.359 108.222C482.82 111.289 489.106 112.834 496.002 112.834C502.898 112.834 509.381 111.202 514.949 108.005C520.562 104.763 525 100.217 528.11 94.4739C531.177 88.818 532.744 82.3137 532.744 75.1786C532.744 68.0435 531.177 61.561 528.11 55.9051C524.978 50.1404 520.562 45.594 514.949 42.3744L514.928 42.3527ZM514.493 87.2083C512.665 90.58 510.207 93.1034 506.966 94.9525C503.659 96.8233 499.983 97.7369 495.719 97.7369C491.456 97.7369 487.692 96.8233 484.429 94.9525C481.232 93.1034 478.773 90.58 476.968 87.2083C475.119 83.793 474.183 79.7468 474.183 75.1569C474.183 70.5669 475.119 66.5208 476.968 63.1055C478.795 59.7337 481.232 57.2103 484.429 55.3612C487.692 53.4905 491.39 52.5768 495.719 52.5768C500.048 52.5768 503.659 53.4905 506.966 55.3612C510.207 57.2103 512.665 59.7337 514.493 63.0837C516.342 66.499 517.277 70.5451 517.277 75.1351C517.277 79.7251 516.342 83.7712 514.493 87.1865V87.2083Z" fill="#111111"/>
<path d="M596.243 41.917C590.696 38.915 584.279 37.4141 577.165 37.4141C570.052 37.4141 563.765 39.0673 558.196 42.3303C552.606 45.5933 548.168 50.1833 545.057 55.9045C541.99 61.5604 540.424 68.0646 540.424 75.178C540.424 82.2914 542.012 88.8391 545.144 94.5385C548.299 100.325 552.78 104.915 558.414 108.178C564.026 111.419 570.422 113.072 577.426 113.072C583.67 113.072 589.565 111.833 594.981 109.353C600.463 106.851 605.01 103.37 608.469 99.0197L611.536 95.1476L599.832 85.4021L596.656 89.644C594.894 91.9934 592.241 93.9512 588.803 95.4739C585.214 97.0619 581.386 97.8668 577.405 97.8668C571.118 97.8668 566.202 96.083 562.373 92.385C559.61 89.731 557.74 86.381 556.695 82.2696H613.298L613.755 77.7231C613.863 76.766 613.907 75.352 613.907 73.503C613.907 66.5419 612.384 60.2552 609.382 54.8168C606.315 49.2914 601.899 44.9407 596.243 41.8953V41.917ZM556.804 67.1945C557.87 63.5399 559.697 60.4727 562.351 57.9275C566.18 54.273 571.031 52.4892 577.144 52.4892C581.494 52.4892 585.323 53.3376 588.542 55.0343C591.718 56.7093 594.111 58.9499 595.895 61.9302C596.874 63.5617 597.57 65.3019 598.005 67.1945H556.782H556.804Z" fill="#111111"/>
<path d="M672.334 42.1777C667.94 39.3498 662.675 37.9141 656.693 37.9141C650.711 37.9141 645.751 39.5238 641.118 42.6998C640.748 42.9609 640.378 43.2219 640.008 43.5047V38.5667H624.803V111.832H640.269V74.3075C640.269 70.2396 641.031 66.6286 642.597 63.2786C644.098 60.059 646.078 57.6227 648.666 55.8171C651.103 54.0986 653.691 53.272 656.563 53.272C659.434 53.272 662.219 53.9681 664.59 55.3821L669.158 58.1012L676.228 44.7011L672.334 42.1995V42.1777Z" fill="#111111"/>
<path d="M732.091 38.5436L732.048 44.4606C730.982 43.6774 729.851 42.9596 728.654 42.2852C723.085 39.131 716.777 37.543 709.859 37.543C702.942 37.543 696.503 39.1745 690.956 42.3722C685.387 45.5917 680.992 50.16 677.86 55.9029C674.793 61.5587 673.227 68.063 673.227 75.1764C673.227 82.2898 674.793 88.794 677.86 94.4717C680.992 100.215 685.387 104.761 690.956 108.002C696.481 111.222 702.833 112.832 709.859 112.832C716.886 112.832 723.064 111.265 728.611 108.155C729.807 107.48 730.96 106.762 732.026 105.979L732.07 111.809H747.232V38.5436H732.07H732.091ZM729.002 87.2278C727.175 90.5778 724.739 93.123 721.497 94.9503C718.191 96.821 714.515 97.7347 710.251 97.7347C705.987 97.7347 702.224 96.821 698.961 94.9503C695.763 93.1012 693.305 90.5778 691.499 87.206C689.65 83.7907 688.715 79.7446 688.715 75.1546C688.715 70.5647 689.65 66.5185 691.499 63.1032C693.327 59.7315 695.763 57.2081 698.961 55.359C702.224 53.4882 705.922 52.5746 710.251 52.5746C714.58 52.5746 718.191 53.4882 721.497 55.359C724.739 57.2081 727.197 59.7315 729.024 63.0815C730.873 66.4968 731.809 70.5429 731.809 75.1329C731.809 79.7229 730.873 83.769 729.024 87.1843L729.002 87.2278Z" fill="#111111"/>
<path d="M74.8698 59.2099C67.6042 49.0511 55.7051 42.3945 42.2832 42.3945V57.2956C56.1401 57.2956 67.4084 68.5639 67.4084 82.4208H82.3095C82.3095 68.5639 93.5778 57.2956 107.435 57.2956V42.3945C94.0128 42.3945 82.1137 49.0511 74.8481 59.2099H74.8698Z" fill="#111111"/>
<path d="M74.8698 91.667C67.6042 81.5081 55.7051 74.8516 42.2832 74.8516V89.7527C56.1401 89.7527 67.4084 101.021 67.4084 114.878H82.3095C82.3095 101.021 93.5778 89.7527 107.435 89.7527V74.8516C94.0128 74.8516 82.1137 81.5081 74.8481 91.667H74.8698Z" fill="#111111"/>
<path d="M74.8753 0C33.5873 0 0 33.5873 0 74.8753C0 116.163 33.5873 149.729 74.8753 149.729C116.163 149.729 149.729 116.142 149.729 74.8753C149.729 33.609 116.142 0 74.8753 0ZM74.8753 136.72C40.7659 136.72 13.0085 108.963 13.0085 74.8753C13.0085 40.7877 40.7659 13.0085 74.8753 13.0085C108.985 13.0085 136.72 40.7659 136.72 74.8753C136.72 108.985 108.963 136.72 74.8753 136.72Z" fill="#111111"/>
</g>
<defs>
<clipPath id="clip0_3114_5220">
<rect width="747.252" height="149.729" fill="white"/>
</clipPath>
</defs>
</svg>
