<svg width="735" height="108" viewBox="0 0 735 108" fill="none" xmlns="http://www.w3.org/2000/svg">
<path d="M71.3723 94.373C67.0878 98.6155 63.6727 99.1695 45.2581 99.1695C35.581 99.1695 29.361 99.1134 24.5294 98.7207C43.8977 68.911 63.4904 39.6201 82.6203 11.1497L81.5193 8.56212H21.1214C16.6334 8.56212 14.6489 8.52004 12.9099 4.92969H8.14842C7.75573 11.5073 6.14987 25.3849 5.30838 34.0382L10.5677 34.1855C12.6083 28.6036 14.7541 23.8632 16.4441 21.4369C19.5857 16.5142 22.019 15.2239 33.6736 15.2239H58.9463C39.522 44.5007 19.1299 74.9276 0 102.76L1.15002 105.733H80.5376C81.933 100.081 85.9091 84.2822 86.9609 78.8125L81.7507 77.5713C78.7705 84.6258 74.8014 91.1403 71.3653 94.373H71.3723Z" fill="#111111"/>
<path d="M115.634 88.8608V37.6211C108.04 40.1175 99.4564 42.06 90.6137 43.21V47.6699C98.3204 48.7778 98.9655 49.3739 98.9655 59.1282V88.8538C98.9655 99.3093 98.0188 99.9615 89.4707 100.957V105.726H125.423V100.957C116.384 99.9615 115.634 99.0218 115.634 88.8538V88.8608Z" fill="#111111"/>
<path d="M106.285 26.5704C111.789 26.5704 116.102 22.1526 116.102 16.9003C116.102 11.2413 111.789 7.125 106.439 7.125C101.089 7.125 96.5234 11.2413 96.5234 16.9003C96.5234 22.1526 101.138 26.5704 106.292 26.5704H106.285Z" fill="#111111"/>
<path d="M152.448 89.4574V0C146.108 2.08269 136.067 4.08824 126.53 5.084V9.55091C134.931 11.0375 135.779 11.9351 135.779 20.1817V89.4574C135.779 99.0293 135.169 99.7796 126.277 100.972V105.74H161.992V100.972C153.051 99.976 152.448 99.3308 152.448 89.4574Z" fill="#111111"/>
<path d="M226.936 93.237C222.49 88.104 208.017 69.6894 204.545 64.4371C208.367 59.9702 212.855 54.6758 215.408 52.0742C221.06 46.1277 225.211 44.4447 234.902 42.8949V38.3719L203.332 39.6201V44.2904C209.44 45.0828 211.411 46.4713 209.146 50.1247C207.189 53.3785 201.656 60.0052 198.024 63.6377C195.682 66.0289 193.038 68.3079 189.23 69.2616V0C181.713 2.48239 172.162 4.33367 163.312 5.084V9.45975C171.706 11.0936 172.562 11.6897 172.562 20.336V89.6537C172.562 99.3168 171.819 99.8778 163.158 100.972V105.74H198.627V100.972C189.981 99.8778 189.23 99.4781 189.23 89.6537V73.448C189.735 73.3428 190.549 73.3428 191.047 73.441C192.007 73.5392 192.898 74.2825 194.511 76.288C195.212 77.2838 215.281 105.186 215.885 106.035C220.583 105.789 230.274 105.635 240.68 105.733V100.965C234.46 100.278 232.56 99.3449 226.943 93.237H226.936Z" fill="#111111"/>
<path d="M294.318 101.323C272.531 101.323 258.162 82.7888 258.162 54.9074C258.162 31.0161 269.81 12.875 292.53 12.875C297.144 12.875 302.782 13.6323 306.478 15.2312C314.297 18.3727 318.469 24.1089 321.555 35.1955L327.066 34.1507C325.965 27.2575 324.921 16.9282 324.226 10.0069C320.068 9.45293 308.925 6.47266 295.973 6.47266C260.932 6.47266 237.469 27.4538 237.469 58.2383C237.469 82.8449 254.635 107.97 293.281 107.97C304.641 107.97 316.688 105.088 320.734 104.191C323.076 99.1698 326.961 88.013 329.051 80.643L323.792 78.6585C315.875 94.5766 307.817 101.316 294.318 101.316V101.323Z" fill="#111111"/>
<path d="M377.801 37.8272C371.203 37.8272 365.502 44.2996 359.303 53.7243V37.4766C350.818 40.4218 343.02 42.217 334.437 43.3109V47.6305C342.038 48.9699 342.634 49.608 342.634 57.9248V90.0907C342.634 99.319 341.835 100.069 333.385 100.967V105.735H371.069V100.967C360.235 99.873 359.296 99.3261 359.296 90.0416V61.7395C362.192 55.3793 366.561 52.4972 369.12 52.4972C371.68 52.4972 373.601 54.5728 376.041 56.7186C377.142 57.6653 378.531 58.2053 380.417 57.3077C382.913 56.0104 387.149 52.1325 387.149 46.172C387.149 41.4596 383.327 37.8272 377.801 37.8272Z" fill="#111111"/>
<path d="M444.798 61.7794C444.896 49.6269 434.834 37.832 420.76 37.832C412.695 37.832 404.372 41.6187 397.808 48.4558C391.581 54.739 387.121 64.7457 387.121 75.103C387.121 92.6831 398.376 107.535 417.779 107.535C423.537 107.535 434.974 104.702 444.244 91.7715L441.657 87.9427C436.222 92.7322 430.444 94.9832 424.511 94.9832C413.803 94.9832 403.776 86.8558 403.544 69.5492C419.196 68.9531 439.595 67.8031 442.484 67.1018C444.49 66.604 444.742 64.4792 444.791 61.7794H444.798ZM428.2 59.0937C428.2 61.534 427.302 61.9828 425.002 62.081C417.835 62.3334 411.209 62.4316 404.294 62.5298C405.613 50.6157 411.272 43.7996 417.562 43.7996C424.28 43.7996 428.347 51.4572 428.2 59.0937Z" fill="#111111"/>
<path d="M515.026 87.4238V0C508.231 2.04061 496.696 4.03915 487.671 5.084V9.64908C497.411 10.743 498.26 11.3321 498.26 19.8311V38.6945C495.602 37.9301 492.229 37.825 490.812 37.825C468.485 37.825 450.344 53.8553 450.344 74.4438C450.344 96.2454 467.65 107.528 480.09 107.528C481.787 107.528 484.655 106.925 489.08 104.261C491.773 102.521 495.56 100.327 498.253 98.5875V107.627C509.115 104.296 521.976 102.5 525.405 101.904V97.2341L521.59 96.8344C515.959 96.2454 515.012 95.3899 515.012 87.4238H515.026ZM498.26 93.2651C494.866 95.5652 491.366 96.7994 487.734 96.7994C480.013 96.6521 468.997 88.6369 468.997 69.5772C468.997 47.9509 479.957 44.2413 485.476 44.2413C490.995 44.2413 495.988 47.2146 498.26 51.7656V93.2651Z" fill="#111111"/>
<path d="M552.593 88.8608V37.6211C544.999 40.1175 536.415 42.06 527.573 43.21V47.6699C535.279 48.7778 535.925 49.3739 535.925 59.1282V88.8538C535.925 99.3093 534.978 99.9615 526.43 100.957V105.726H562.382V100.957C553.343 99.9615 552.593 99.0218 552.593 88.8538V88.8608Z" fill="#111111"/>
<path d="M543.238 26.5704C548.743 26.5704 553.055 22.1526 553.055 16.9003C553.055 11.2413 548.743 7.125 543.392 7.125C538.042 7.125 533.477 11.2413 533.477 16.9003C533.477 22.1526 538.091 26.5704 543.245 26.5704H543.238Z" fill="#111111"/>
<path d="M604.548 37.825C601.974 37.825 599.057 38.5613 595.348 40.1952L587.515 43.6803V0C580.236 2.13879 568.827 4.28459 561.316 5.084V9.74726C570.11 10.3994 570.846 11.4863 570.846 20.2729V90.4812C570.846 94.324 570.846 98.4543 570.748 102.15C580.327 106.035 588.216 107.528 596.098 107.528C617.142 107.577 634.575 90.2848 634.575 69.4229C634.575 52.3126 621.995 37.825 604.541 37.825H604.548ZM600.439 101.407C594.331 101.407 589.569 96.8765 588.363 94.1136C587.865 92.8163 587.515 91.1754 587.515 88.9805V48.8485C589.969 47.9369 592.662 47.1725 596.224 47.1725C606.399 47.1725 616.125 55.5383 616.125 73.9389C616.125 92.3395 610.088 101.407 600.439 101.407Z" fill="#111111"/>
<path d="M663.858 89.4574V0C657.519 2.08269 647.477 4.08824 637.94 5.084V9.55091C646.341 11.0375 647.189 11.9351 647.189 20.1817V89.4574C647.189 99.0293 646.579 99.7796 637.688 100.972V105.74H673.402V100.972C664.461 99.976 663.858 99.3308 663.858 89.4574Z" fill="#111111"/>
<path d="M713.772 94.9754C703.057 94.9754 693.036 86.848 692.805 69.5414C708.457 68.9453 728.856 67.7953 731.745 67.094C733.751 66.5962 734.003 64.4714 734.052 61.7716C734.15 49.6191 724.087 37.8242 710.014 37.8242C701.949 37.8242 693.626 41.6109 687.062 48.448C680.835 54.7312 676.375 64.7379 676.375 75.0952C676.375 92.6753 687.63 107.528 707.033 107.528C712.79 107.528 724.228 104.695 733.498 91.7637L730.91 87.9349C725.476 92.7244 719.698 94.9754 713.765 94.9754H713.772ZM706.816 43.7988C713.534 43.7988 717.601 51.4564 717.454 59.0929C717.454 61.5332 716.556 61.982 714.256 62.0802C707.089 62.3326 700.47 62.4308 693.548 62.529C694.867 50.6149 700.526 43.7988 706.816 43.7988Z" fill="#111111"/>
</svg>
