<svg width="743" height="218" viewBox="0 0 743 218" fill="none" xmlns="http://www.w3.org/2000/svg">
<g clip-path="url(#clip0_3114_5417)">
<path d="M688.816 123.416C672.132 126.599 658.272 133.791 650.773 142.13C649.547 137.738 647.375 134.186 644.002 132.073C636.095 127.121 624.138 130.864 612.73 140.411C612.769 139.749 612.999 139.087 612.935 138.413C612.488 133.155 609 128.534 603.456 124.906C611.172 125.008 617.47 122.869 620.868 118.057C625.237 111.87 623.934 102.705 618.53 93.1188C622.094 96.6196 626.067 98.7837 630.346 98.7837C634 98.7837 637.462 97.3197 640.617 94.7228C641.562 100.044 643.734 104.385 647.541 106.893C659.498 114.735 681.393 102.628 696.455 79.854C711.503 57.0671 714.02 32.2434 702.05 24.4016C690.847 17.0563 671.008 27.3295 656.164 47.354C655.589 21.0536 644.296 0.0234375 630.346 0.0234375C616.397 0.0234375 604.414 22.1356 604.414 49.4163C604.414 62.5919 607.161 74.4946 611.581 83.3548C607.148 78.1482 601.731 73.0561 595.268 68.5115C572.887 52.8152 548.066 49.5436 539.826 61.2044C531.586 72.8652 543.045 95.0537 565.426 110.763C568.799 113.131 572.235 115.116 575.659 116.911C571.073 116.58 566.32 116.491 561.338 116.911C534.065 119.254 512.961 132.671 514.188 146.878C515.414 161.098 538.51 170.722 565.784 168.392C577.281 167.412 587.552 164.369 595.651 160.219C581.126 183.299 579.159 208.135 591.269 215.723C603.392 223.31 625.032 210.745 639.595 187.653C644.22 180.333 647.413 172.873 649.444 165.795C657.939 174.477 677.242 178.245 698.55 174.184C725.44 169.067 745.049 153.549 742.354 139.533C739.671 125.517 715.693 118.312 688.803 123.429L688.816 123.416Z" fill="#111111"/>
<path d="M64.7659 56.2616C59.1707 52.9518 51.276 51.2969 41.0692 51.2969C29.7254 51.2969 21.1026 53.5246 15.1879 57.9547C9.27334 62.3975 5.26213 68.7753 3.15433 77.0881C1.04654 85.4009 -0.000976562 95.4576 -0.000976562 107.233V139.44C-0.000976562 150.579 1.00821 160.356 3.03936 168.745C5.05774 177.147 9.03062 183.639 14.9452 188.235C20.8598 192.843 29.5721 195.134 41.0692 195.134C51.11 195.134 58.928 193.352 64.5232 189.801C70.1185 186.249 74.0019 181.08 76.1864 174.295C78.3708 167.51 79.4694 159.439 79.4694 150.07V140.382H55.8876V151.763C55.8876 156.448 55.6066 160.649 55.0445 164.353C54.4697 168.07 53.1794 170.934 51.161 172.959C49.1299 174.983 45.9363 175.988 41.5546 175.988C35.7166 175.988 31.6671 173.977 29.406 169.929C27.1321 165.893 25.9952 157.899 25.9952 145.945V101.874C25.9952 93.9682 26.3657 87.705 27.0938 83.1094C27.822 78.5011 29.3166 75.2422 31.5905 73.2945C33.8643 71.3595 37.0963 70.392 41.3119 70.392C45.1953 70.392 48.1974 71.2068 50.3052 72.8108C52.413 74.4275 53.8692 77.0117 54.674 80.5634C55.4788 84.1151 55.8876 88.9653 55.8876 95.1012V103.579H79.4694V95.3431C79.4694 85.6555 78.4091 77.5464 76.3141 71.0031C74.2063 64.4598 70.3612 59.546 64.7659 56.2362V56.2616Z" fill="#111111"/>
<path d="M144.85 167.228C144.85 172.727 141.937 177.845 137.172 180.607C136.699 180.887 136.214 181.154 135.729 181.409C132.573 183.102 129.533 183.955 126.62 183.955C122.085 183.955 119.083 182.542 117.627 179.716C116.171 176.89 115.443 172.982 115.443 167.966V53.2422H89.4336V166.591C89.4336 171.11 90.0468 175.553 91.2604 179.92C92.4739 184.273 94.6201 187.914 97.6987 190.817C100.777 193.719 105.07 195.17 110.588 195.17C117.397 195.17 123.669 193.63 129.418 190.575C135.166 187.519 140.315 183.79 144.85 179.436C144.85 187.061 151.058 193.235 158.71 193.235H170.858V53.2422H144.85V167.215V167.228Z" fill="#111111"/>
<path d="M213.64 12.3047H187.631V193.225H213.64V12.3047Z" fill="#111111"/>
<path d="M284.104 193.709V174.575C282.481 174.741 280.821 174.906 279.122 175.059C277.423 175.225 275.928 175.301 274.625 175.301C269.605 175.301 266.194 174.13 264.418 171.788C262.63 169.445 261.748 165.537 261.748 160.038V76.9864H284.359V53.232H261.748V12.3047H235.739V53.232H220.921V76.9864H235.739V161.731C235.739 168.516 236.749 174.41 238.78 179.413C240.798 184.416 244.043 188.299 248.501 191.036C252.959 193.785 258.823 195.147 266.117 195.147C269.362 195.147 272.351 195.02 275.11 194.791C277.87 194.549 280.859 194.18 284.104 193.696V193.709Z" fill="#111111"/>
<path d="M319.092 53.2227H293.096V193.216H319.092V53.2227Z" fill="#111111"/>
<path d="M368.928 165.865L351.657 53.2422H325.418L353.126 193.235H384.96L411.697 53.2422H386.416L368.928 165.865Z" fill="#111111"/>
<path d="M486.082 62.6874C480.231 55.0748 470.356 51.2812 456.407 51.2812C442.457 51.2812 431.598 54.9475 424.828 62.2928C418.057 69.7017 414.429 81.1079 414.097 96.5877L439.889 97.568V90.5537C439.889 86.4927 440.349 83.0174 441.333 80.0004C442.316 77.047 443.9 74.6919 446.072 73.1134C448.244 71.4712 451.144 70.6819 454.695 70.6819C458.77 70.6819 461.797 71.5985 463.841 73.4317C465.885 75.3284 467.201 78.0909 467.853 81.8208C468.44 85.4871 468.772 90.2099 468.772 95.8494C468.772 101.769 465.195 107.141 459.715 109.42C455.525 111.164 451.45 112.92 447.516 114.728C440.809 117.809 434.882 121.411 429.81 125.485C424.675 129.622 420.663 134.664 417.764 140.634C415.119 146.044 413.663 152.575 413.42 160.238C413.241 165.585 413.944 171.046 416.001 175.985C418.505 182.007 422.12 186.793 426.987 190.396C431.202 193.54 436.07 195.119 441.588 195.119C449.687 195.119 456.062 192.764 460.673 187.977C465.272 183.254 468.376 178.137 470.011 172.637C470.139 173.885 470.139 176.966 470.203 180.441C470.267 187.519 476.054 193.222 483.105 193.222H494.82V95.5821C494.82 81.2225 491.856 70.2746 486.069 62.662L486.082 62.6874ZM461.223 175.845C451.552 179.69 437.334 180.759 437.334 155.528C437.334 127.662 464.774 110.222 468.785 107.918L469.82 162.784C469.922 168.487 466.55 173.732 461.235 175.845H461.223Z" fill="#111111"/>
</g>
<defs>
<clipPath id="clip0_3114_5417">
<rect width="742.609" height="217.927" fill="white"/>
</clipPath>
</defs>
</svg>
