<svg width="750" height="137" viewBox="0 0 750 137" fill="none" xmlns="http://www.w3.org/2000/svg">
<g clip-path="url(#clip0_3114_5299)">
<path d="M125.643 27.4228C114.946 28.8223 111.631 31.105 111.098 38.9859C110.564 45.8172 110.048 51.782 110.048 67.0274V136.773H100.234L27.1565 49.1662V88.7708C27.1565 104.016 27.5064 110.847 28.0395 115.929C28.7393 123.644 32.4215 127.676 45.3843 128.375V134.857H1.93079V128.375C11.9278 127.492 16.2931 124.877 17.3594 116.629C18.0592 110.314 18.4091 104.016 18.4091 88.7708V47.2334C18.4091 41.4518 18.0592 37.603 14.7269 33.0377C11.5779 28.6557 7.36248 28.1392 -0.00195312 27.4228V20.9414H34.171L100.934 98.5679V67.0274C100.934 51.782 100.751 46.0005 100.234 39.5191C99.7011 31.9881 96.902 28.3058 82.3564 27.4228V20.9414H125.643V27.4228Z" fill="#111111"/>
<path d="M213.102 130.645C202.589 132.044 191.376 134.327 179.812 136.959V125.046C172.631 131.011 165.267 136.959 155.636 136.959C140.908 136.959 132.677 127.496 132.677 111.9V75.6281C132.677 67.5639 131.627 66.6975 126.895 65.4645L123.213 64.4148V58.7999C132.144 58.45 145.989 57.217 155.803 55.8174C155.453 63.1819 155.27 72.2958 155.27 82.2761V107.868C155.27 119.265 161.051 123.114 167.183 123.114C172.098 123.114 175.947 122.064 179.796 118.032V75.7947C179.796 67.7305 178.913 66.3309 174.014 65.4478L168.749 64.3982V58.7832C178.913 58.4333 193.808 57.2004 202.572 55.8008V112.933C202.572 122.047 203.622 123.98 209.237 124.497L213.086 124.846V130.628L213.102 130.645Z" fill="#111111"/>
<path d="M296.529 63.0156C287.065 64.5985 285.666 66.5146 281.984 74.7621C275.852 88.7745 266.738 110.335 256.225 136.793H248.86C240.096 115.066 232.032 94.3894 223.618 74.2289C220.469 66.6978 218.719 64.5818 209.605 63.0156V57.0508H253.409V63.0156C245.528 64.5985 244.478 65.9981 246.578 71.7796C250.96 83.876 257.274 100.688 260.073 107.885C263.056 100.171 269.004 84.9256 273.036 72.8293C274.786 67.5643 274.436 64.2486 263.572 63.0156V57.0508H296.512V63.0156H296.529Z" fill="#111111"/>
<path d="M353.827 136.959C349.096 136.959 345.247 135.376 342.964 133.276C340.515 131.177 339.282 128.711 338.416 126.795C331.751 131.177 323.17 136.959 319.838 136.959C304.759 136.959 296.012 125.212 296.012 114.349C296.012 105.052 300.21 100.853 309.508 97.1708C319.854 93.3219 333.684 89.1066 337.716 85.6076V77.8933C337.716 68.7794 334.383 63.6976 326.852 63.6976C323.87 63.6976 321.421 65.0972 319.838 67.1965C317.738 69.9957 317.039 73.5113 315.639 78.7597C314.406 83.4916 311.607 84.7245 308.108 84.7245C303.559 84.7245 297.761 80.5258 297.761 75.6106C297.761 72.4616 299.861 70.179 303.893 67.3798C311.774 62.1147 322.12 57.033 331.934 54.9336C338.949 54.9336 344.897 56.5164 349.979 60.0154C357.51 65.2805 359.609 72.6282 359.609 81.5755V111.9C359.609 120.314 362.408 122.413 365.224 122.413C366.974 122.413 368.723 121.88 370.656 121.014L372.588 126.978L353.844 136.975L353.827 136.959ZM337.699 92.8054C334.55 94.5549 331.384 96.3044 327.885 98.2371C322.454 101.036 319.305 104.202 319.305 110.15C319.305 119.964 326.136 123.463 330.001 123.463C332.451 123.463 334.917 123.296 337.716 120.664V92.8054H337.699Z" fill="#111111"/>
<path d="M409.194 58.282C414.276 55.9994 418.124 54.9497 421.64 54.9497C443.017 54.9497 457.213 72.2945 457.213 91.9218C457.213 116.814 436.702 136.958 411.126 136.958C400.963 136.958 392.032 135.209 379.936 130.643C380.119 126.445 380.119 121.53 380.119 117.147V36.0221C380.119 26.0252 379.07 24.6256 369.256 23.9258V17.9609C378.37 17.0779 393.082 14.6286 402.729 11.9961V61.2478L409.21 58.2654L409.194 58.282ZM402.712 115.581C402.712 118.031 403.246 120.13 403.762 121.546C404.812 124.179 409.727 129.61 416.208 129.61C425.489 129.61 432.337 119.264 432.337 97.7201C432.337 76.1766 421.29 66.5295 410.777 66.5295C407.094 66.5295 405.345 67.0627 402.712 67.7625V115.598V115.581Z" fill="#111111"/>
<path d="M462.477 134.859V128.894C472.474 127.311 472.823 126.445 472.823 115.398V35.6722C472.823 26.5583 471.774 25.5087 462.66 23.5759V17.961C474.756 16.728 487.019 14.6286 495.433 11.9961V115.398C495.433 126.961 495.966 127.661 505.947 128.894V134.859H462.493H462.477Z" fill="#111111"/>
<path d="M579.889 117.68C569.192 133.459 555.18 136.958 547.815 136.958C524.339 136.958 511.01 119.613 511.01 98.7526C511.01 86.4896 516.791 74.3933 524.156 67.2122C532.037 59.3312 541.85 54.9492 551.497 54.9492C568.676 54.9492 580.589 69.1449 580.405 83.5072C580.405 86.4896 580.222 89.4721 578.123 89.9886C574.79 90.8716 550.081 92.0879 533.086 92.7877C533.786 111.365 544.133 120.829 556.746 120.829C563.577 120.829 570.408 118.38 576.723 112.948L579.872 117.68H579.889ZM547.999 62.1304C540.984 62.1304 535.036 70.3612 533.986 84.207C541.167 84.0237 547.832 83.8571 555.196 83.6738C557.646 83.4906 558.695 83.1407 558.695 80.1749C558.879 71.4109 554.846 62.1304 547.999 62.1304Z" fill="#111111"/>
<path d="M624.144 70.9102C621.428 70.9102 619.212 73.2095 619.429 75.9253C621.995 109.632 650.153 136.19 684.526 136.19C718.899 136.19 747.057 109.632 749.623 75.9253C749.822 73.2095 747.623 70.9102 744.907 70.9102H624.161H624.144Z" fill="#111111"/>
<path d="M727.328 54.9143C738.558 43.6844 740.075 26.4397 731.91 13.5769C729.844 10.3279 725.262 9.91134 722.547 12.6272L685.041 50.1325C682.325 52.8483 682.742 57.4303 685.991 59.4963C698.854 67.6605 716.098 66.1276 727.328 54.9143Z" fill="#111111"/>
<path d="M668.779 27.4087L690.506 22.2936C692.788 21.7604 693.638 18.9446 692.022 17.2285L676.727 0.966722C675.11 -0.749424 672.245 -0.0662984 671.578 2.18302L665.147 23.5599C664.464 25.8092 666.48 27.9585 668.779 27.4087Z" fill="#111111"/>
<path d="M651.02 62.3141C657.876 62.3141 663.433 56.7566 663.433 49.9012C663.433 43.0457 657.876 37.4883 651.02 37.4883C644.165 37.4883 638.607 43.0457 638.607 49.9012C638.607 56.7566 644.165 62.3141 651.02 62.3141Z" fill="#111111"/>
</g>
<defs>
<clipPath id="clip0_3114_5299">
<rect width="749.622" height="136.958" fill="white"/>
</clipPath>
</defs>
</svg>
