<svg width="630" height="186" viewBox="0 0 630 186" fill="none" xmlns="http://www.w3.org/2000/svg">
<g clip-path="url(#clip0_3114_5245)">
<path d="M112.974 30.1251C106.947 24.2249 99.9479 19.6122 91.9771 16.2829C84.0064 12.9617 75.314 11.293 65.9 11.293C56.486 11.293 47.9494 12.9617 39.9172 16.2829C31.8849 19.6122 24.8859 24.2249 18.9243 30.1251C12.9626 36.0252 8.31711 42.9914 4.99187 51.0237C1.66252 59.06 0.00195312 67.7196 0.00195312 77.0065C0.00195312 86.2934 1.66252 94.9571 4.99187 102.989C8.31711 111.026 12.9626 118.025 18.9243 123.986C24.8859 129.948 31.8849 134.561 39.9172 137.824C47.9494 141.084 56.609 142.72 65.9 142.72C75.191 142.72 84.0064 141.084 91.9771 137.824C99.9479 134.561 106.947 129.948 112.974 123.986C118.997 118.025 123.671 111.026 127.001 102.989C130.326 94.9571 131.991 86.2975 131.991 77.0065C131.991 67.7155 130.326 59.06 127.001 51.0237C123.671 42.9914 118.997 36.0252 112.974 30.1251ZM60.2336 107.344C53.6774 111.936 44.698 111.149 39.175 105.355C39.1422 105.318 39.1053 105.281 39.0725 105.244C35.6161 101.608 32.951 97.3721 31.069 92.538C29.187 87.7039 28.244 82.5294 28.244 77.0024C28.244 71.4754 29.187 66.1451 31.069 61.3766C32.951 56.6081 35.6161 52.4013 39.0725 48.7604C42.5208 45.1194 46.539 42.2985 51.123 40.2853C55.7029 38.2803 60.6313 37.2758 65.9 37.2758C71.1687 37.2758 76.0971 38.2803 80.6811 40.2853C85.261 42.2985 89.2792 45.1194 92.7316 48.7604C96.1839 52.4013 98.8531 56.6081 100.735 61.3766C101.174 62.4919 101.563 63.6317 101.9 64.7921C103.835 71.4631 101.244 78.622 95.5566 82.6073L60.2336 107.34V107.344Z" fill="#111111"/>
<path d="M280.732 23.3438H253.995V47.0674H210.992V90.1848C210.992 94.9574 210.238 99.3815 208.733 103.461C207.228 107.541 204.936 110.805 201.861 113.252C198.782 115.7 194.923 116.926 190.282 116.926C185.641 116.926 181.967 115.7 178.892 113.252C175.813 110.805 173.525 107.541 172.02 103.461C170.515 99.3815 169.761 95.0189 169.761 90.3734V47.0674H143.023V93.3871C143.023 102.424 144.811 110.71 148.391 118.242C151.97 125.774 157.272 131.736 164.299 136.131C171.327 140.523 179.991 142.72 190.282 142.72C200.574 142.72 209.422 140.523 216.453 136.131C223.481 131.74 228.787 125.807 232.362 118.337C235.938 110.87 237.729 102.551 237.729 93.3871V69.6634H253.995V103.367C253.995 111.153 255.499 118.025 258.513 123.983C261.527 129.944 266.012 134.59 271.974 137.915C277.936 141.24 285.373 142.905 294.287 142.905C297.678 142.905 301.159 142.495 304.738 141.683C308.318 140.863 311.295 139.772 313.681 138.387V114.474C311.422 115.979 308.72 117.111 305.583 117.865C302.442 118.62 299.494 118.993 296.735 118.993C291.839 118.993 287.948 117.549 285.062 114.663C282.171 111.776 280.732 107.762 280.732 102.612V69.6634H313.681V47.0674H280.732V23.3438Z" fill="#111111"/>
<path d="M385.291 89.9075C381.462 87.9641 377.349 86.488 372.958 85.4835C368.563 84.4789 364.422 83.6015 360.53 82.847C356.639 82.0926 353.47 81.0594 351.022 79.7391C348.574 78.4189 347.348 76.5082 347.348 73.9948C347.348 72.3629 347.849 70.9524 348.853 69.7593C349.858 68.5661 351.235 67.6272 352.994 66.9343C354.749 66.2454 356.697 65.8969 358.833 65.8969C362.597 65.8969 366.082 66.7128 369.284 68.3447C372.487 69.9766 374.774 72.4859 376.156 75.8767L395.927 64.7694C394.045 61.1284 391.438 57.8032 388.112 54.7895C384.783 51.7759 380.675 49.3281 375.779 47.4461C370.883 45.5641 365.045 44.6211 358.267 44.6211C350.608 44.6211 343.958 45.9373 338.308 48.5737C332.657 51.2101 328.295 54.7854 325.22 59.3038C322.141 63.8222 320.607 68.9064 320.607 74.5565C320.607 80.5837 321.829 85.3851 324.277 88.9604C326.725 92.5358 329.894 95.2665 333.785 97.1526C337.676 99.0345 341.817 100.482 346.213 101.482C350.604 102.487 354.716 103.364 358.546 104.119C362.371 104.873 365.541 105.845 368.054 107.038C370.564 108.231 371.818 110.085 371.818 112.594C371.818 114.476 371.22 116.079 370.031 117.395C368.837 118.711 367.206 119.72 365.135 120.409C363.064 121.102 360.584 121.446 357.697 121.446C353.052 121.446 349.161 120.597 346.024 118.904C342.883 117.211 340.251 114.48 338.115 110.712L318.344 121.819C322.235 128.724 327.536 133.964 334.252 137.539C340.964 141.115 349.222 142.906 359.013 142.906C366.041 142.906 372.569 141.619 378.596 139.048C384.619 136.477 389.453 132.898 393.094 128.318C396.735 123.738 398.556 118.309 398.556 112.032C398.556 106.259 397.301 101.614 394.792 98.0997C392.278 94.5858 389.109 91.8551 385.283 89.9075H385.291Z" fill="#111111"/>
<path d="M438.483 47.0742H411.746V140.275H438.483V47.0742Z" fill="#111111"/>
<path d="M433.398 2.2592C430.885 0.754433 428.125 0 425.112 0C422.098 0 419.306 0.754433 416.731 2.2592C414.156 3.76396 412.147 5.77305 410.708 8.28236C409.265 10.7958 408.543 13.5552 408.543 16.5688C408.543 19.5824 409.265 22.3747 410.708 24.9455C412.151 27.5204 414.16 29.5295 416.731 30.9727C419.302 32.416 422.098 33.1376 425.112 33.1376C428.125 33.1376 430.885 32.416 433.398 30.9727C435.908 29.5295 437.884 27.5204 439.327 24.9455C440.77 22.3747 441.492 19.5783 441.492 16.5688C441.492 13.5593 440.766 10.7958 439.327 8.28236C437.884 5.77305 435.908 3.76396 433.398 2.2592Z" fill="#111111"/>
<path d="M490.071 23.3438H463.334V47.0674H446.199V69.6634H463.334V103.367C463.334 111.153 464.839 118.025 467.852 123.983C470.866 129.944 475.351 134.59 481.313 137.915C487.275 141.24 494.713 142.905 503.626 142.905C507.017 142.905 510.498 142.495 514.078 141.683C517.657 140.863 520.634 139.772 523.02 138.387V114.474C520.761 115.979 518.059 117.111 514.922 117.865C511.782 118.62 508.834 118.993 506.074 118.993C501.179 118.993 497.287 117.549 494.401 114.663C491.51 111.776 490.071 107.762 490.071 102.612V69.6634H523.02V47.0674H490.071V23.3438Z" fill="#111111"/>
<path d="M602.664 47.0742V92.8281C602.664 97.2235 601.754 101.209 599.933 104.784C598.113 108.364 595.604 111.156 592.401 113.165C589.199 115.174 585.591 116.179 581.577 116.179C574.922 116.179 569.838 114.079 566.324 109.873C562.81 105.67 561.051 100.176 561.051 93.398V47.0783H534.691V94.337C534.691 103.501 536.229 111.632 539.304 118.721C542.379 125.814 547.119 131.37 553.519 135.384C559.92 139.402 568.141 141.407 578.186 141.407C583.959 141.407 588.92 140.402 593.062 138.393C597.154 136.409 600.479 133.563 603.041 129.861V132.366C603.041 138.139 602.037 143.195 600.028 147.524C598.019 151.854 595.161 155.245 591.462 157.693C587.76 160.141 583.209 161.367 577.813 161.367C571.79 161.367 566.734 159.985 562.655 157.225C558.575 154.462 555.467 151.075 553.335 147.057L531.305 159.107C535.569 167.767 541.69 174.389 549.661 178.973C557.632 183.553 567.14 185.845 578.186 185.845C588.478 185.845 597.486 183.614 605.206 179.161C612.927 174.705 618.95 168.427 623.28 160.333C627.61 152.24 629.774 142.789 629.774 131.997V47.0742H602.66H602.664Z" fill="#111111"/>
</g>
<defs>
<clipPath id="clip0_3114_5245">
<rect width="629.779" height="185.841" fill="white"/>
</clipPath>
</defs>
</svg>
