<svg width="805" height="192" viewBox="0 0 805 192" fill="none" xmlns="http://www.w3.org/2000/svg">
<g clip-path="url(#clip0_3114_5341)">
<path d="M84.2421 1.28342L8.8239 34.801C3.45902 37.1846 -0.00195312 42.5125 -0.00195312 48.3866V140.674C-0.00195312 146.128 2.98673 151.146 7.78339 153.743L74.1544 189.689C78.2131 191.888 83.054 192.072 87.2677 190.205L162.413 156.806C167.778 154.422 171.239 149.094 171.239 143.22V47.9069C171.239 42.2764 168.058 37.1329 163.025 34.6091L96.9275 1.57122C92.9573 -0.413858 88.3009 -0.517171 84.2421 1.28342ZM149.3 98.0431L142.938 105.991C140.053 109.599 140.725 114.883 144.422 117.658L147.816 120.204C149.875 121.753 151.093 124.174 151.093 126.757V133.966C151.093 137.287 149.093 140.276 146.023 141.538L105.318 158.297C99.9309 160.518 94.0126 156.555 94.0126 150.725V91.2097C94.0126 87.8889 96.0124 84.9003 99.0823 83.6384L139.787 66.8796C145.174 64.6584 151.093 68.6211 151.093 74.4509V92.9291C151.093 94.7888 150.458 96.5893 149.3 98.0431Z" fill="#111111"/>
<path d="M271.812 90.1942C274.284 88.8216 276.461 87.1391 278.314 85.1245C282.173 80.9403 284.099 75.6935 284.099 69.3914C284.099 59.8276 280.454 52.1899 273.17 46.4782C265.887 40.7738 255.991 37.918 243.49 37.918H198.482V148.802H249.032C262.182 148.802 272.351 145.946 279.524 140.242C286.697 134.537 290.283 126.464 290.283 116.03C290.283 108.311 287.892 102.031 283.11 97.1973C280.122 94.1791 276.351 91.8472 271.798 90.2016L271.812 90.1942ZM242.855 58.6248C247.526 58.6248 251.091 59.7391 253.533 61.9677C255.976 64.1963 257.201 67.2145 257.201 71.0149C257.201 74.498 255.976 77.3465 253.533 79.5751C251.091 81.8037 247.364 82.918 242.361 82.918H224.584V58.6248H242.848H242.855ZM259.651 124.501C257.039 126.892 253.29 128.088 248.397 128.088H224.591V101.832H247.585C252.803 101.832 256.773 103.057 259.489 105.499C262.204 107.942 263.562 111.071 263.562 114.879C263.562 118.9 262.256 122.11 259.651 124.501Z" fill="#111111"/>
<path d="M354.065 128.734C351.35 130.586 347.926 131.509 343.793 131.509C337.705 131.509 333.056 129.228 329.853 124.66C327.307 121.037 325.795 116.137 325.263 109.983H385.539V104.441C385.539 94.8769 383.797 86.6414 380.322 79.7343C376.838 72.8344 371.894 67.536 365.481 63.8389C359.069 60.1417 351.512 58.2969 342.812 58.2969C334.111 58.2969 326.533 60.1196 320.061 63.7577C313.589 67.4031 308.593 72.6721 305.058 79.5719C301.523 86.4791 299.76 94.9286 299.76 104.928C299.76 114.927 301.523 122.757 305.058 129.715C308.593 136.674 313.648 142.024 320.223 145.781C326.798 149.529 334.657 151.404 343.786 151.404C354.545 151.404 363.732 148.688 371.341 143.249C378.949 137.818 383.901 130.04 386.181 119.93H360.087C358.781 123.952 356.774 126.889 354.051 128.734H354.065ZM342.812 78.1846C348.464 78.1846 352.811 80.4648 355.859 85.0327C357.711 87.8148 358.995 91.3569 359.718 95.6296H325.75C326.473 91.3422 327.75 87.8 329.602 85.0327C332.643 80.4648 337.048 78.1846 342.812 78.1846Z" fill="#111111"/>
<path d="M424.182 31.3867H399.232V148.794H424.182V31.3867Z" fill="#111111"/>
<path d="M503.353 63.92C496.881 60.1713 489.192 58.2969 480.277 58.2969C471.363 58.2969 464.131 60.1196 457.608 63.7577C451.084 67.4031 446.059 72.6721 442.524 79.5719C438.989 86.4791 437.226 94.9286 437.226 104.928C437.226 114.927 438.96 122.757 442.443 129.715C445.919 136.674 450.892 142.024 457.364 145.781C463.829 149.529 471.466 151.404 480.277 151.404C489.089 151.404 496.719 149.581 503.191 145.943C509.655 142.305 514.658 137.028 518.193 130.129C521.721 123.229 523.492 114.831 523.492 104.935C523.492 95.0393 521.75 86.944 518.274 79.9852C514.791 73.0263 509.817 67.6762 503.353 63.92ZM493.406 124.417C490.417 128.926 486.041 131.184 480.277 131.184C474.514 131.184 470.3 128.926 467.312 124.417C464.323 119.908 462.825 113.407 462.825 104.928C462.825 96.4488 464.316 89.7925 467.312 85.2762C470.3 80.7674 474.625 78.5093 480.277 78.5093C485.93 78.5093 490.417 80.7895 493.406 85.3574C496.394 89.9253 497.892 96.4488 497.892 104.928C497.892 113.407 496.394 119.901 493.406 124.417Z" fill="#111111"/>
<path d="M575.172 119.121L572.936 129.74L570.611 119.121L552.834 61.0664H525.929L556.915 148.794H587.732L618.711 61.0664H593.111L575.172 119.121Z" fill="#111111"/>
<path d="M676.606 128.734C673.891 130.586 670.467 131.509 666.334 131.509C660.246 131.509 655.597 129.228 652.394 124.66C649.848 121.037 648.336 116.137 647.804 109.983H708.08V104.441C708.08 94.8769 706.338 86.6414 702.863 79.7343C699.379 72.8344 694.435 67.536 688.022 63.8389C681.61 60.1417 674.053 58.2969 665.353 58.2969C656.652 58.2969 649.074 60.1196 642.602 63.7577C636.13 67.4031 631.134 72.6721 627.599 79.5719C624.064 86.4791 622.301 94.9286 622.301 104.928C622.301 114.927 624.064 122.757 627.599 129.715C631.134 136.674 636.189 142.024 642.764 145.781C649.339 149.529 657.198 151.404 666.327 151.404C677.086 151.404 686.273 148.688 693.882 143.249C701.49 137.818 706.442 130.04 708.722 119.93H682.628C681.322 123.952 679.315 126.889 676.592 128.734H676.606ZM665.36 78.1846C671.013 78.1846 675.359 80.4648 678.407 85.0327C680.259 87.8148 681.543 91.3569 682.266 95.6296H648.299C649.022 91.3422 650.299 87.8 652.151 85.0327C655.191 80.4648 659.597 78.1846 665.36 78.1846Z" fill="#111111"/>
<path d="M778.362 119.93C777.056 123.952 775.049 126.889 772.326 128.734C769.61 130.586 766.186 131.509 762.054 131.509C755.966 131.509 751.317 129.228 748.114 124.66C745.568 121.037 744.055 116.137 743.524 109.983H803.8V104.441C803.8 94.8769 802.058 86.6414 798.582 79.7343C795.099 72.8344 790.155 67.536 783.742 63.8389C777.329 60.1417 769.773 58.2969 761.072 58.2969C752.372 58.2969 744.793 60.1196 738.321 63.7577C731.85 67.4031 726.854 72.6721 723.319 79.5719C719.784 86.4791 718.021 94.9286 718.021 104.928C718.021 114.927 719.784 122.757 723.319 129.715C726.854 136.674 731.909 142.024 738.484 145.781C745.059 149.529 752.918 151.404 762.046 151.404C772.806 151.404 781.993 148.688 789.601 143.249C797.21 137.818 802.161 130.04 804.442 119.93H778.348H778.362ZM761.072 78.1846C766.725 78.1846 771.072 80.4648 774.119 85.0327C775.972 87.8148 777.256 91.3569 777.979 95.6296H744.011C744.734 91.3422 746.011 87.8 747.863 85.0327C750.903 80.4648 755.309 78.1846 761.072 78.1846Z" fill="#111111"/>
</g>
<defs>
<clipPath id="clip0_3114_5341">
<rect width="804.451" height="191.49" fill="white"/>
</clipPath>
</defs>
</svg>
