<svg width="864" height="236" viewBox="0 0 864 236" fill="none" xmlns="http://www.w3.org/2000/svg">
<g clip-path="url(#clip0_3114_5394)">
<path d="M97.1284 95.5504C109.886 89.2897 116.604 79.4411 116.604 63.9962C116.604 37.1375 97.5861 23.2578 68.7045 23.2578H0V179.921H69.1622C101.396 179.921 121.979 163.354 121.979 134.709C121.979 116.577 113.917 101.132 97.1431 95.5356L97.1284 95.5504ZM31.9971 53.7046H64.452C77.874 53.7046 84.3708 57.9571 84.3708 69.3709C84.3708 79.884 78.5532 85.2587 65.3527 85.2587H31.9971V53.7046ZM68.483 149.489H31.9971V114.569H68.2615C84.8286 114.569 89.5241 120.608 89.5241 132.021C89.5241 142.535 84.8286 149.474 68.483 149.474V149.489Z" fill="#111111"/>
<path d="M166.546 7.61719H134.534V179.947H166.546V7.61719Z" fill="#111111"/>
<path d="M199.201 0C188.009 0 179.282 7.82579 179.282 18.7967C179.282 29.7675 188.009 37.8148 199.201 37.8148C210.393 37.8148 219.12 29.7528 219.12 18.7967C219.12 7.84055 210.836 0 199.201 0Z" fill="#111111"/>
<path d="M215.091 56.8555H183.079V179.957H215.091V56.8555Z" fill="#111111"/>
<path d="M302.16 54.1641C285.15 54.1641 272.836 61.1039 263.888 73.6399V56.8514H231.876V179.953H263.888V115.264C263.888 95.1239 273.515 84.596 291.633 84.596C308.643 84.596 314.682 93.544 314.682 109.668V179.938H346.694V102.728C346.694 72.5178 329.905 54.1641 302.16 54.1641Z" fill="#111111"/>
<path d="M395.265 91.3236V37.8425V7.61719H363.253V37.8425V179.962H395.265V126.466L445.616 179.962H486.576L420.455 108.895L486.576 37.8425H445.616L395.265 91.3236Z" fill="#111111"/>
<path d="M608.123 72.985C608.123 40.0724 585.96 20.375 552.397 20.375H486.587V126.481L486.69 126.555L536.953 179.947H577.912L528.152 126.481H552.412C585.974 126.481 608.138 105.883 608.138 72.985H608.123ZM518.599 96.0194V50.8217H551.054C567.606 50.8217 575.668 59.5482 575.668 73.4279C575.668 87.3076 567.621 96.0194 551.054 96.0194H518.599Z" fill="#111111"/>
<path d="M701.613 74.0829C693.108 62.2261 680.129 54.1641 662.676 54.1641C631.121 54.1641 606.714 80.3435 606.714 118.395C606.714 156.446 630.664 182.625 662.897 182.625C680.129 182.625 692.886 175.021 701.613 163.371L701.391 179.938H733.403L733.624 56.8366H701.627V74.0681L701.613 74.0829ZM670.058 152.193C652.384 152.193 638.947 138.771 638.947 118.395C638.947 98.018 652.148 84.596 670.058 84.596C687.969 84.596 701.613 98.2543 701.613 118.395C701.613 138.535 687.954 152.193 670.058 152.193Z" fill="#111111"/>
<path d="M829.29 56.8555L798.622 128.705L768.19 56.8555H734.17L781.612 163.611L749.393 235.904H783.413L863.532 56.8555H829.29Z" fill="#111111"/>
</g>
<defs>
<clipPath id="clip0_3114_5394">
<rect width="863.524" height="235.896" fill="white"/>
</clipPath>
</defs>
</svg>
