<svg width="591" height="226" viewBox="0 0 591 226" fill="none" xmlns="http://www.w3.org/2000/svg">
<g clip-path="url(#clip0_3114_5358)">
<path d="M106.692 138.675L79.0889 120.063L100.837 102.823C106.839 97.3074 109.961 92.5692 110.12 88.5842C110.315 84.6357 106.851 79.6667 99.8005 73.7135C95.5313 70.1295 91.6037 67.8333 87.981 66.8492C84.3217 65.9016 80.6624 66.0595 76.9665 67.396C73.234 68.781 69.343 71.223 65.269 74.807L26.078 107.816C25.0412 108.691 23.4799 108.436 22.7603 107.27C22.1504 106.298 22.3578 105.01 23.2238 104.269L44.5818 86.1422C46.6188 84.2834 47.8142 81.647 47.8142 78.8405L48.0216 30.438C48.0216 27.0119 47.68 23.7316 46.9848 20.5728C46.2529 17.4626 44.2525 14.8505 40.9835 12.8459C37.7146 10.8291 32.0915 9.80859 24.163 9.80859C16.2345 9.80859 10.5383 10.8291 7.14731 12.8459C3.79296 14.8627 1.75596 17.4262 1.0607 20.4513C0.328838 23.5251 -0.0126953 26.7568 -0.0126953 30.195V155.016C-0.0126953 158.284 0.292245 161.48 0.914324 164.638C1.5364 167.749 3.53681 170.361 6.87896 172.365C10.2699 174.382 15.9296 175.403 23.8947 175.403C31.8597 175.403 37.7146 174.419 40.9835 172.487C44.2525 170.555 46.2529 167.992 46.9848 164.881C47.68 161.723 48.0216 158.527 48.0216 155.223V148.516L72.9657 168.429C77.5886 171.904 81.5528 174.261 84.895 175.609C88.2859 176.946 91.6647 177.031 95.1288 175.84C98.5929 174.662 102.667 171.977 107.485 167.761C114.023 162.245 117.109 157.276 116.767 152.89C116.426 148.468 113.035 143.742 106.68 138.651L106.692 138.675Z" fill="#111111"/>
<path d="M239.495 124.221C244.448 119.373 246.924 112.764 246.924 104.393C246.924 99.91 245.911 95.0624 243.874 89.8261C241.837 84.6019 238.605 79.6694 234.189 75.0405C229.762 70.4116 223.968 66.6089 216.808 63.6081C209.648 60.6194 200.927 59.125 190.668 59.125C176.873 59.125 164.883 61.6642 154.71 66.7426C144.537 71.8209 136.669 78.8432 131.083 87.7972C125.509 96.7633 122.728 107.139 122.728 118.936C122.728 125.35 123.874 132.008 126.179 138.873C128.473 145.749 132.193 152.127 137.328 158.02C142.451 163.924 149.355 168.699 158.027 172.356C166.688 176.013 177.483 177.847 190.4 177.847C200.487 177.847 209.465 177.021 217.332 175.381C225.2 173.729 231.445 171.384 236.043 168.322C240.642 165.261 242.947 161.64 242.947 157.461C242.947 155.821 242.716 154.181 242.289 152.528C241.85 150.888 240.91 149.09 239.495 147.146C237.373 143.562 235.019 140.877 232.457 139.079C229.896 137.293 227.017 136.394 223.834 136.394C222.419 136.394 220.955 136.589 219.455 136.953C217.942 137.33 216.308 137.816 214.539 138.411C212.77 139.006 210.868 139.565 208.831 140.1C206.794 140.622 204.403 141.072 201.671 141.448C198.926 141.825 195.877 142.007 192.51 142.007C188.79 142.007 185.521 141.558 182.691 140.659C179.861 139.759 177.605 138.532 175.921 136.965C174.238 135.398 173.226 133.575 172.872 131.474H220.37C228.152 131.474 234.519 129.044 239.483 124.196L239.495 124.221ZM200.878 108.086C199.731 108.913 197.914 109.313 195.438 109.313H172.616C172.616 107.078 173.323 104.915 174.738 102.814C176.153 100.724 178.19 98.9988 180.837 97.6624C183.496 96.3138 186.582 95.6456 190.132 95.6456C192.791 95.6456 195.035 95.9858 196.901 96.654C198.755 97.3222 200.17 98.3306 201.146 99.6791C202.122 101.028 202.61 102.595 202.61 104.381C202.61 106.033 202.037 107.26 200.878 108.074V108.086Z" fill="#111111"/>
<path d="M320.76 136.985C318.198 136.463 315.759 136.207 313.466 136.207C312.051 136.207 310.941 136.098 310.148 135.867C309.355 135.649 308.782 135.163 308.428 134.409C308.074 133.668 307.855 132.696 307.769 131.494C307.684 130.303 307.635 128.809 307.635 127.01V30.4606C307.635 27.0223 307.282 23.742 306.574 20.6075C305.867 17.473 303.878 14.8974 300.597 12.8806C297.328 10.8639 291.705 9.85547 283.74 9.85547C275.775 9.85547 270.115 10.8639 266.749 12.8806C263.382 14.8974 261.345 17.4366 260.65 20.4982C259.943 23.5598 259.589 26.8158 259.589 30.2419V129.489C259.589 137.702 260.43 144.542 262.114 149.985C263.785 155.44 266.139 159.85 269.152 163.203C272.152 166.568 275.873 169.144 280.3 170.93C284.728 172.716 289.68 173.919 295.169 174.514C300.646 175.109 306.672 175.413 313.21 175.413C315.503 175.413 317.979 175.146 320.638 174.623C323.297 174.101 325.554 172.424 327.408 169.581C329.262 166.751 330.189 161.964 330.189 155.245C330.189 148.527 329.262 144.311 327.408 141.687C325.554 139.075 323.334 137.507 320.772 136.985H320.76Z" fill="#111111"/>
<path d="M446.37 64.1268C437.514 61.1381 430.977 60.4335 426.732 62.0007C422.487 63.568 418.596 67.8688 415.059 74.8789L384.662 133.888C383.869 135.431 381.869 135.771 380.625 134.592C379.759 133.778 379.551 132.466 380.112 131.397L390.993 110.695C392.688 107.463 392.566 103.551 390.688 100.441L373.928 72.6313C370.037 66.2165 365.927 62.2923 361.584 60.8708C357.242 59.4494 350.741 60.5307 342.08 64.1268C333.944 67.4071 329.163 70.9547 327.748 74.7696C326.333 78.5844 327.48 83.6142 331.2 89.8954L373.989 160.3L356.669 196.31C353.131 202.725 352.155 207.913 353.753 211.874C355.351 215.834 360.474 219.382 369.147 222.516C377.99 225.505 384.577 226.246 388.919 224.752C393.249 223.257 397.104 218.932 400.458 211.752L459.373 89.4337C462.556 83.0189 463.349 77.9284 461.763 74.1986C460.178 70.4687 455.042 67.1034 446.37 64.1147V64.1268Z" fill="#111111"/>
<path d="M589.766 74.0255C589.059 70.891 587.071 68.3154 583.79 66.2986C580.521 64.2818 574.898 63.2734 566.933 63.2734C559.675 63.2734 554.198 64.3183 550.478 66.4079C547.416 68.1331 545.501 70.3929 544.599 73.1265C543.586 72.033 542.208 70.9153 540.391 69.7733C537.561 67.9752 534.109 66.493 530.035 65.2902C525.961 64.0996 521.362 63.5043 516.239 63.5043C508.628 63.5043 501.553 65.0351 495.003 68.0967C488.453 71.1583 482.745 75.3498 477.89 80.6468C473.023 85.9439 469.217 91.9578 466.473 98.6885C463.728 105.407 462.362 112.429 462.362 119.743C462.362 127.057 463.692 134.346 466.339 141.138C468.998 147.941 472.755 154.016 477.622 159.398C482.488 164.78 488.197 168.996 494.735 172.058C501.273 175.119 508.445 176.65 516.227 176.65C521.887 176.65 526.754 175.945 530.828 174.524C534.902 173.102 538.256 171.499 540.915 169.701C542.196 168.838 543.257 168.036 544.123 167.271C544.818 169.47 546.758 171.438 549.941 173.175C554.186 175.484 559.76 176.65 566.664 176.65C574.8 176.65 580.508 175.678 583.777 173.734C587.046 171.79 589.035 169.251 589.754 166.117C590.462 162.982 590.815 159.775 590.815 156.482V83.672C590.815 80.3917 590.462 77.1722 589.754 74.0377L589.766 74.0255ZM539.354 127.907C538.11 130.374 536.39 132.354 534.182 133.848C531.962 135.343 529.449 136.084 526.619 136.084C523.436 136.084 520.655 135.343 518.264 133.848C515.873 132.354 513.97 130.41 512.556 128.017C511.141 125.623 510.433 123.011 510.433 120.18C510.433 117.192 511.092 114.47 512.421 112.004C513.751 109.538 515.568 107.557 517.861 106.063C520.155 104.569 522.899 103.828 526.083 103.828C529.266 103.828 531.962 104.569 534.182 106.063C536.39 107.557 538.122 109.501 539.354 111.895C540.586 114.288 541.208 116.973 541.208 119.962C541.208 122.95 540.586 125.453 539.354 127.92V127.907Z" fill="#111111"/>
<path d="M188.434 47.0968C198.692 47.0968 210.231 43.78 222.416 34.8868C229.82 29.4804 231.723 18.6919 226.661 10.7827C221.599 2.87357 211.499 0.844653 204.095 6.25106C187.397 18.4246 176.919 9.00894 174.065 5.76509C168.149 -1.28146 158 -1.97397 151.304 4.27074C144.546 10.564 143.839 21.5226 149.73 28.7393C156.403 36.9036 170.442 47.0968 188.434 47.0968Z" fill="#111111"/>
</g>
<defs>
<clipPath id="clip0_3114_5358">
<rect width="590.829" height="226" fill="white"/>
</clipPath>
</defs>
</svg>
