<svg width="754" height="191" viewBox="0 0 754 191" fill="none" xmlns="http://www.w3.org/2000/svg">
<g clip-path="url(#clip0_3114_5311)">
<path d="M260.814 35.2792H228.251V13.8065H263.921V0H211.486V80.0482H228.251V48.5462H260.814V35.2792Z" fill="#111111"/>
<path d="M273.866 78.6908C276.88 80.2352 280.36 80.9981 284.323 80.9981C286.909 80.9981 289.328 80.6074 291.561 79.8259C293.794 79.0444 295.785 77.928 297.534 76.4394C299.283 74.9508 300.716 73.2203 301.87 71.2294H302.204V80.0492H318.411V39.2808C318.411 35.2803 317.369 31.8007 315.285 28.8049C313.201 25.8092 310.261 23.4833 306.484 21.8459C302.707 20.2084 298.26 19.3711 293.124 19.3711C287.989 19.3711 283.411 20.1712 279.615 21.79C275.819 23.3902 272.861 25.6231 270.74 28.47C268.618 31.3169 267.39 34.5732 267.055 38.2388L267 38.9087H281.867L281.978 38.4063C282.388 36.4897 283.467 34.9081 285.253 33.6614C287.04 32.4147 289.44 31.8007 292.473 31.8007C295.506 31.8007 298.074 32.5636 299.748 34.0708C301.404 35.578 302.242 37.662 302.242 40.2856V43.914L287.542 44.8257C282.63 45.1607 278.443 46.0724 274.982 47.5424C271.521 49.0124 268.898 51.0405 267.074 53.6083C265.269 56.1761 264.357 59.2835 264.357 62.8933V63.005C264.357 66.4845 265.195 69.5733 266.888 72.29C268.563 75.0066 270.926 77.1278 273.94 78.6722L273.866 78.6908ZM280.378 62.0746C280.378 59.972 281.197 58.2787 282.816 57.0321C284.453 55.7854 286.816 55.0597 289.924 54.8736L302.186 54.0549V58.3718C302.186 60.4 301.646 62.2421 300.548 63.8981C299.451 65.5356 297.962 66.8381 296.045 67.787C294.129 68.736 291.989 69.2012 289.589 69.2012C286.779 69.2012 284.546 68.5871 282.872 67.3405C281.197 66.0938 280.378 64.4005 280.378 62.2049V62.0932V62.0746Z" fill="#111111"/>
<path d="M337.05 77.5009C341.46 80.0129 346.67 81.2782 352.699 81.2782C357.984 81.2782 362.598 80.2734 366.543 78.2638C370.488 76.2542 373.576 73.519 375.828 70.0766C378.079 66.6343 379.345 62.764 379.605 58.4285V58.0936H364.515L364.403 58.596C363.882 61.5918 362.635 64.0107 360.663 65.8342C358.691 67.6577 356.067 68.5881 352.811 68.5881C350.15 68.5881 347.843 67.881 345.907 66.4482C343.972 65.0155 342.465 62.9501 341.405 60.2334C340.344 57.5168 339.823 54.2047 339.823 50.3344V50.2786C339.823 46.5013 340.344 43.2637 341.405 40.547C342.465 37.8304 343.954 35.7464 345.907 34.2764C347.843 32.8064 350.131 32.0807 352.755 32.0807C356.123 32.0807 358.784 33.0483 360.737 34.9649C362.691 36.8814 363.919 39.2631 364.403 42.0728L364.459 42.5752H379.549V42.1844C379.326 37.8862 378.098 34.0345 375.865 30.5922C373.632 27.1498 370.525 24.4332 366.58 22.405C362.617 20.3954 357.946 19.3906 352.55 19.3906C346.633 19.3906 341.479 20.6373 337.106 23.1307C332.734 25.624 329.328 29.178 326.928 33.774C324.528 38.37 323.318 43.8591 323.318 50.2228V50.2786C323.318 56.6422 324.509 62.15 326.891 66.7832C329.273 71.4164 332.678 75.0075 337.069 77.5195L337.05 77.5009Z" fill="#111111"/>
<path d="M388.332 63.4129C388.332 69.7765 389.914 74.3353 393.095 77.1078C396.277 79.8802 401.152 81.2758 407.739 81.2758C409.432 81.2758 410.94 81.2014 412.261 81.0897C413.582 80.9595 414.68 80.8292 415.554 80.6804V68.809C415.07 68.8834 414.549 68.9392 414.01 68.995C413.452 69.0509 412.8 69.0695 412.075 69.0695C409.637 69.0695 407.795 68.5299 406.548 67.432C405.302 66.3342 404.688 64.4177 404.688 61.6266V32.7854H415.554V20.5791H404.688V6.04688H388.332V20.5791H380.07V32.7854H388.332V63.4129Z" fill="#111111"/>
<path d="M432.019 77.5744C436.429 80.0306 441.639 81.2586 447.667 81.2586C453.696 81.2586 458.85 80.0306 463.26 77.5744C467.67 75.1183 471.075 71.5829 473.494 66.9497C475.913 62.3351 477.122 56.7716 477.122 50.3149V50.2032C477.122 43.7651 475.894 38.2574 473.457 33.6428C471.019 29.0468 467.577 25.5115 463.167 23.0553C458.739 20.5992 453.566 19.3711 447.611 19.3711C441.657 19.3711 436.54 20.6178 432.13 23.0925C427.72 25.5673 424.297 29.1027 421.84 33.7172C419.384 38.3132 418.156 43.821 418.156 50.2218V50.3335C418.156 56.7716 419.366 62.3165 421.785 66.9497C424.204 71.6015 427.609 75.1369 432.019 77.593V77.5744ZM434.679 50.2032C434.679 46.3887 435.219 43.1325 436.298 40.4344C437.377 37.7364 438.885 35.671 440.82 34.2196C442.755 32.7869 445.025 32.0612 447.611 32.0612C450.198 32.0612 452.524 32.7683 454.459 34.201C456.394 35.6338 457.901 37.6992 458.98 40.4158C460.06 43.1325 460.581 46.3887 460.581 50.2032V50.3149C460.581 54.2038 460.06 57.4972 458.999 60.2139C457.938 62.9305 456.45 64.9959 454.533 66.4287C452.617 67.8428 450.328 68.5685 447.704 68.5685C445.081 68.5685 442.736 67.8615 440.764 66.4287C438.81 64.9959 437.303 62.9305 436.242 60.2139C435.182 57.4972 434.661 54.1852 434.661 50.3149V50.2032H434.679Z" fill="#111111"/>
<path d="M514.32 33.5822C515.362 33.7496 516.2 33.9729 516.869 34.2706V19.9617C516.274 19.7756 515.567 19.6268 514.767 19.5151C513.948 19.4035 513.111 19.3477 512.218 19.3477C508.738 19.3477 505.835 20.3711 503.51 22.3992C501.184 24.4274 499.565 27.2743 498.69 30.9399H498.355V20.5571H482.148V80.0257H498.355V46.7375C498.355 43.8533 498.858 41.4158 499.863 39.4062C500.867 37.4152 502.3 35.8895 504.198 34.8661C506.096 33.8427 508.366 33.3217 511.027 33.3217C512.218 33.3217 513.315 33.3961 514.357 33.5636L514.32 33.5822Z" fill="#111111"/>
<path d="M228.233 96.7578H211.486V176.806H228.233V96.7578Z" fill="#111111"/>
<path d="M271.551 116.105C267.067 116.105 263.327 117.092 260.294 119.045C257.261 120.999 254.972 123.679 253.409 127.084H253.074V117.315H236.867V176.784H253.074V142.621C253.074 140.034 253.558 137.764 254.544 135.792C255.53 133.838 256.907 132.294 258.675 131.196C260.443 130.079 262.545 129.54 264.945 129.54C268.574 129.54 271.29 130.619 273.133 132.759C274.956 134.899 275.886 137.913 275.886 141.802V176.802H292.093V138.415C292.093 131.419 290.307 125.967 286.734 122.023C283.162 118.078 278.101 116.124 271.57 116.124L271.551 116.105Z" fill="#111111"/>
<path d="M336.209 117.336L323.947 162.496H323.612L311.183 117.336H293.822L314.402 176.805H332.711L353.123 117.336H336.209Z" fill="#111111"/>
<path d="M394.9 119.813C390.657 117.357 385.652 116.129 379.846 116.129C374.041 116.129 368.998 117.394 364.737 119.925C360.458 122.455 357.146 126.047 354.782 130.68C352.419 135.332 351.229 140.802 351.229 147.128V147.184C351.229 153.511 352.419 158.981 354.782 163.614C357.146 168.229 360.514 171.802 364.886 174.295C369.24 176.788 374.469 178.035 380.535 178.035C384.796 178.035 388.499 177.477 391.662 176.379C394.825 175.263 397.505 173.793 399.7 171.951C401.896 170.108 403.645 168.062 404.948 165.847C406.25 163.633 407.106 161.419 407.553 159.242L407.72 158.628H392.853L392.741 158.963C392.369 160.079 391.662 161.158 390.639 162.238C389.597 163.317 388.275 164.191 386.638 164.898C385.001 165.605 383.084 165.959 380.87 165.959C378.06 165.959 375.641 165.345 373.594 164.098C371.566 162.852 370.003 161.084 368.905 158.739C367.882 156.562 367.361 153.957 367.305 150.98H408.222V145.938C408.222 139.946 407.069 134.717 404.761 130.233C402.454 125.767 399.179 122.288 394.937 119.832L394.9 119.813ZM373.446 130.047C375.381 128.819 377.614 128.224 380.125 128.224C382.637 128.224 384.852 128.819 386.75 129.991C388.648 131.164 390.136 132.931 391.215 135.294C391.922 136.839 392.369 138.662 392.611 140.709H367.473C367.715 138.718 368.18 136.95 368.887 135.406C369.985 133.061 371.492 131.275 373.427 130.047H373.446Z" fill="#111111"/>
<path d="M446.172 142.421L436.069 140.262C434.078 139.816 432.477 139.295 431.305 138.718C430.114 138.123 429.277 137.434 428.774 136.634C428.272 135.834 428.03 134.941 428.03 133.936V133.88C428.03 132.578 428.402 131.48 429.147 130.549C429.891 129.619 430.933 128.912 432.31 128.391C433.668 127.87 435.287 127.61 437.129 127.61C440.125 127.61 442.488 128.317 444.2 129.749C445.912 131.182 446.917 132.931 447.158 135.052L447.214 135.499H462.137V134.941C462.026 131.461 460.984 128.298 459.011 125.451C457.039 122.604 454.211 120.334 450.526 118.659C446.842 116.985 442.376 116.129 437.129 116.129C431.882 116.129 427.714 116.892 423.955 118.436C420.197 119.962 417.294 122.12 415.247 124.893C413.2 127.665 412.177 130.959 412.177 134.773V134.829C412.177 137.788 412.828 140.411 414.112 142.681C415.415 144.951 417.35 146.868 419.936 148.394C422.522 149.92 425.742 151.11 429.593 151.911L439.697 154.069C442.618 154.702 444.646 155.502 445.8 156.451C446.954 157.4 447.512 158.684 447.512 160.284V160.34C447.512 161.642 447.121 162.74 446.321 163.67C445.521 164.601 444.405 165.308 442.972 165.81C441.52 166.313 439.771 166.554 437.706 166.554C434.487 166.554 431.975 165.903 430.17 164.619C428.365 163.317 427.193 161.512 426.672 159.186L426.56 158.684H410.744L410.8 159.186C411.247 162.926 412.53 166.201 414.689 169.029C416.829 171.857 419.843 174.072 423.695 175.653C427.565 177.235 432.235 178.035 437.706 178.035C442.804 178.035 447.307 177.235 451.215 175.616C455.122 173.997 458.174 171.764 460.388 168.88C462.602 165.996 463.719 162.61 463.719 158.721V158.665C463.719 154.292 462.361 150.831 459.644 148.226C456.927 145.64 452.443 143.705 446.191 142.402L446.172 142.421Z" fill="#111111"/>
<path d="M488.986 102.805H472.631V117.337H464.369V129.543H472.631V160.171C472.631 166.534 474.212 171.093 477.394 173.866C480.576 176.638 485.451 178.034 492.038 178.034C493.731 178.034 495.238 177.959 496.56 177.848C497.881 177.717 498.979 177.587 499.853 177.438V165.567C499.369 165.641 498.848 165.697 498.309 165.753C497.75 165.809 497.099 165.827 496.374 165.827C493.936 165.827 492.094 165.288 490.847 164.19C489.601 163.092 488.986 161.175 488.986 158.384V129.543H499.853V117.337H488.986V102.805Z" fill="#111111"/>
<path d="M584.024 118.62C581.103 116.964 577.698 116.127 573.809 116.127C570.888 116.127 568.19 116.629 565.734 117.616C563.277 118.62 561.156 120.035 559.351 121.858C557.565 123.682 556.225 125.859 555.332 128.371H554.997C554.365 125.747 553.285 123.533 551.76 121.709C550.215 119.904 548.354 118.509 546.122 117.541C543.889 116.574 541.414 116.09 538.642 116.09C534.641 116.09 531.18 117.113 528.24 119.141C525.3 121.17 523.216 123.886 522.007 127.291H521.672V117.299H505.465V176.768H521.672V140.875C521.672 138.66 522.1 136.688 522.974 134.995C523.849 133.302 525.058 131.962 526.603 130.976C528.147 129.989 529.952 129.506 531.98 129.506C534.008 129.506 535.683 129.915 537.116 130.734C538.548 131.552 539.646 132.706 540.409 134.232C541.191 135.758 541.581 137.581 541.581 139.721V176.768H557.174V140.651C557.174 138.437 557.602 136.483 558.458 134.827C559.314 133.171 560.505 131.869 562.031 130.92C563.575 129.971 565.343 129.506 567.39 129.506C569.436 129.506 571.26 129.915 572.693 130.752C574.107 131.59 575.205 132.781 575.968 134.362C576.73 135.925 577.103 137.879 577.103 140.205V176.768H593.309V136.111C593.309 132.073 592.491 128.575 590.872 125.58C589.234 122.584 586.964 120.258 584.043 118.583L584.024 118.62Z" fill="#111111"/>
<path d="M641.722 119.813C637.479 117.357 632.474 116.129 626.669 116.129C620.863 116.129 615.821 117.394 611.56 119.925C607.28 122.455 603.968 126.047 601.605 130.68C599.242 135.332 598.051 140.802 598.051 147.128V147.184C598.051 153.511 599.242 158.981 601.605 163.614C603.968 168.229 607.336 171.802 611.708 174.295C616.063 176.788 621.291 178.035 627.357 178.035C631.618 178.035 635.321 177.477 638.484 176.379C641.647 175.263 644.327 173.793 646.523 171.951C648.718 170.108 650.467 168.062 651.77 165.847C653.072 163.633 653.928 161.419 654.375 159.242L654.542 158.628H639.675L639.563 158.963C639.191 160.079 638.484 161.158 637.461 162.238C636.419 163.317 635.098 164.191 633.46 164.898C631.823 165.605 629.906 165.959 627.692 165.959C624.882 165.959 622.463 165.345 620.417 164.098C618.388 162.852 616.825 161.084 615.728 158.739C614.704 156.562 614.183 153.957 614.127 150.98H655.045V145.938C655.045 139.946 653.891 134.717 651.584 130.233C649.276 125.767 646.002 122.288 641.759 119.832L641.722 119.813ZM620.249 130.047C622.184 128.819 624.417 128.224 626.929 128.224C629.441 128.224 631.655 128.819 633.553 129.991C635.451 131.164 636.94 132.931 638.019 135.294C638.726 136.839 639.173 138.662 639.415 140.709H614.276C614.518 138.718 614.983 136.95 615.69 135.406C616.788 133.061 618.295 131.275 620.231 130.047H620.249Z" fill="#111111"/>
<path d="M694.705 116.105C690.221 116.105 686.481 117.092 683.448 119.045C680.415 120.999 678.126 123.679 676.563 127.084H676.228V117.315H660.021V176.784H676.228V142.621C676.228 140.034 676.712 137.764 677.698 135.792C678.685 133.838 680.061 132.294 681.829 131.196C683.597 130.079 685.699 129.54 688.1 129.54C691.728 129.54 694.445 130.619 696.287 132.759C698.11 134.899 699.041 137.913 699.041 141.802V176.802H715.248V138.415C715.248 131.419 713.461 125.967 709.889 122.023C706.316 118.078 701.255 116.124 694.724 116.124L694.705 116.105Z" fill="#111111"/>
<path d="M753.654 129.543V117.337H742.787V102.805H726.432V117.337H718.17V129.543H726.432V160.171C726.432 166.534 728.013 171.093 731.195 173.866C734.377 176.638 739.252 178.034 745.839 178.034C747.532 178.034 749.039 177.959 750.36 177.848C751.682 177.717 752.779 177.587 753.654 177.438V165.567C753.17 165.641 752.649 165.697 752.109 165.753C751.551 165.809 750.9 165.827 750.174 165.827C747.737 165.827 745.895 165.288 744.648 164.19C743.401 163.092 742.787 161.175 742.787 158.384V129.543H753.654Z" fill="#111111"/>
<path d="M0.00390625 95.12H95.1239V0C42.5958 0 0.00390625 42.5919 0.00390625 95.12Z" fill="#111111"/>
<path d="M95.1191 190.241H117.355C117.355 149.994 149.973 117.357 190.239 117.357V95.1211H95.1191V190.241Z" fill="#111111"/>
</g>
<defs>
<clipPath id="clip0_3114_5311">
<rect width="753.647" height="190.24" fill="white"/>
</clipPath>
</defs>
</svg>
