<svg width="757" height="179" viewBox="0 0 757 179" fill="none" xmlns="http://www.w3.org/2000/svg">
<g clip-path="url(#clip0_3114_5234)">
<path d="M45.3956 34.7344L-0.00585938 155.34H16.7459L29.7965 119.211H77.5033L89.7341 155.34H107.626L63.8636 34.7344H45.3956ZM34.4711 105.917L53.9252 52.6388L72.2395 105.917H34.4711Z" fill="#111111"/>
<path d="M185.944 96.7215C184.957 90.8174 183.011 85.6433 180.065 81.1992C177.017 76.5502 172.586 72.7593 166.758 69.8265C160.944 66.8936 154.925 65.4336 148.726 65.4336C136.431 65.4336 126.48 69.8393 118.86 78.6506C111.239 87.462 107.436 98.9244 107.436 113.051C107.436 127.177 111.214 138.537 118.77 146.503C126.326 154.469 135.547 158.452 146.433 158.452C150.89 158.452 154.873 158.017 158.408 157.133C164.978 155.596 170.498 152.651 174.955 148.27C177.619 145.76 180.027 142.507 182.191 138.537C184.356 134.567 185.623 130.968 186.008 127.741H171.471C170.408 131.647 168.603 135.079 166.041 138.05C161.482 143.16 155.373 145.722 147.714 145.722C139.518 145.722 133.46 143.02 129.554 137.615C125.647 132.21 123.547 125.038 123.278 116.086H187.237C187.237 107.223 186.802 100.756 185.931 96.7087L185.944 96.7215ZM123.611 104.355C123.88 96.7984 126.301 90.5741 130.86 85.6818C135.419 80.7894 141.067 78.3304 147.791 78.3304C157.179 78.3304 163.89 81.8908 167.898 88.9988C170.063 92.8282 171.459 97.951 172.048 104.355H123.611Z" fill="#111111"/>
<path d="M215.788 42.8516H200.842V67.4029H188.932V79.4673H200.842V137.676C200.842 143.311 202.072 147.896 204.531 151.431C206.99 154.966 211.677 156.733 218.567 156.733C220.706 156.733 222.679 156.618 224.523 156.4C226.354 156.182 228.122 155.824 229.825 155.337V143.593C228.724 143.734 227.776 143.836 226.956 143.875C226.137 143.913 225.368 143.926 224.664 143.926C221.974 143.926 220.066 143.619 218.913 143.017C216.838 141.979 215.801 139.93 215.801 136.856V79.4673H229.838V67.4029H215.801V42.8516H215.788Z" fill="#111111"/>
<path d="M278.578 65.2792C271.457 65.2792 265.528 66.8417 260.763 69.9538C257.971 71.7596 254.821 74.8846 251.324 79.3159V34.3242H236.545V155.339H251.324V108.708C251.324 97.0026 253.809 89.0365 258.791 84.8102C263.773 80.5966 269.331 78.4834 275.453 78.4834C282.843 78.4834 287.876 80.8912 290.553 85.7067C292.192 88.7163 293.012 93.455 293.012 99.9098V155.327H308.201V98.9237C308.201 90.2788 306.972 83.5166 304.513 78.6499C299.966 69.7233 291.321 65.2664 278.565 65.2664L278.578 65.2792Z" fill="#111111"/>
<path d="M395.467 96.7215C394.481 90.8174 392.534 85.6433 389.589 81.1992C386.54 76.5502 382.109 72.7593 376.282 69.8265C370.467 66.8936 364.448 65.4336 358.249 65.4336C345.954 65.4336 336.003 69.8393 328.383 78.6506C320.763 87.462 316.959 98.9244 316.959 113.051C316.959 127.177 320.737 138.537 328.293 146.503C335.85 154.469 345.071 158.452 355.957 158.452C360.414 158.452 364.397 158.017 367.932 157.133C374.502 155.596 380.022 152.651 384.478 148.27C387.142 145.76 389.55 142.507 391.715 138.537C393.879 134.567 395.147 130.968 395.531 127.741H380.995C379.932 131.647 378.126 135.079 375.565 138.05C371.005 143.16 364.896 145.722 357.238 145.722C349.041 145.722 342.983 143.02 339.077 137.615C335.171 132.21 333.07 125.038 332.801 116.086H396.761C396.761 107.223 396.325 100.756 395.454 96.7087L395.467 96.7215ZM333.147 104.355C333.416 96.7984 335.837 90.5741 340.396 85.6818C344.956 80.7894 350.603 78.3304 357.327 78.3304C366.715 78.3304 373.426 81.8908 377.435 88.9988C379.599 92.8282 380.995 97.951 381.584 104.355H333.147Z" fill="#111111"/>
<path d="M445.84 65.4336C439.987 65.4336 434.813 67.5596 430.318 71.7988C425.822 76.0379 423.005 79.6368 421.865 82.5952V67.4059H407.828V155.34H422.608V104.764C422.608 98.5274 424.606 93.0075 428.601 88.2176C432.597 83.4277 438.322 81.0328 445.763 81.0328C446.634 81.0328 447.441 81.0584 448.184 81.1096C448.926 81.1608 449.733 81.2761 450.604 81.4426V65.8434C449.016 65.6769 447.889 65.5745 447.236 65.5104C446.583 65.4464 446.109 65.4336 445.84 65.4336Z" fill="#111111"/>
<path d="M470.363 34.7344H455.34V51.4862H470.363V34.7344Z" fill="#111111"/>
<path d="M470.363 67.8164H455.34V155.341H470.363V67.8164Z" fill="#111111"/>
<path d="M544.073 112.076C540.398 109.668 533.149 107.184 522.327 104.61L512.375 102.227C508.021 101.19 504.73 99.9862 502.501 98.6286C498.633 96.3361 496.699 93.288 496.699 89.4587C496.699 85.9751 498.172 83.1575 501.105 81.0315C504.051 78.9055 508.38 77.8425 514.092 77.8425C522.66 77.8425 528.692 79.7764 532.163 83.6442C534.289 86.3721 535.492 89.3946 535.774 92.7117H549.734C549.836 87.0253 548.043 81.7103 544.317 76.7795C538.387 69.0056 528.705 65.125 515.283 65.125C505.024 65.125 496.853 67.6992 490.783 72.8477C484.712 77.9962 481.677 84.72 481.677 93.0447C481.677 100.101 484.904 105.634 491.359 109.63C494.971 111.935 500.593 114.01 508.213 115.867L520.149 118.826C526.54 120.414 530.831 121.81 532.995 123.013C536.389 124.986 538.08 127.855 538.08 131.633C538.08 136.615 535.954 140.29 531.714 142.673C527.475 145.055 522.557 146.246 516.973 146.246C507.586 146.246 501.003 143.864 497.199 139.099C495.137 136.474 493.882 132.696 493.434 127.765H479.23C479.615 136.525 482.573 143.876 488.08 149.806C493.587 155.736 502.975 158.72 516.218 158.72C528.525 158.72 537.682 155.877 543.689 150.178C549.696 144.478 552.705 137.729 552.705 129.904C552.705 122.079 549.836 115.867 544.086 112.089L544.073 112.076Z" fill="#111111"/>
<path d="M670.038 0C622.664 0 584.102 41.4313 584.102 92.4039C584.102 131.581 609.588 165.904 643.834 177.777C648.688 179.454 654.067 178.404 658.089 175.215C663.775 170.681 667.579 164.419 669.154 157.58C670.307 152.828 670.358 147.769 669.154 142.813C665.658 128.418 652.723 118.441 638.161 118.441C636.906 118.441 635.65 118.492 634.408 118.646L615.889 120.836L594.501 123.346L612.867 112.703L718.884 51.2416L720.191 50.4859C724.981 47.7068 730.68 52.2917 728.977 57.5683L726.389 65.5984L699.366 149.601V149.652C695.242 162.459 710.15 172.654 720.78 164.406C742.322 147.667 756.602 120.797 756.602 91.1744C756.602 41.7642 716.951 0.0256144 670.038 0.0256144V0Z" fill="#111111"/>
</g>
<defs>
<clipPath id="clip0_3114_5234">
<rect width="756.597" height="178.571" fill="white"/>
</clipPath>
</defs>
</svg>
