<svg width="745" height="204" viewBox="0 0 745 204" fill="none" xmlns="http://www.w3.org/2000/svg">
<g clip-path="url(#clip0_3114_5373)">
<path d="M687.461 172.415V168.039C723.079 162.669 744.283 132.216 744.283 86.1496C744.283 34.2734 718.514 3.30859 675.359 3.30859C632.204 3.30859 606.435 35.0489 606.435 86.1496C606.435 132.304 627.946 162.844 664.12 168.259V174.42C664.12 193.853 675.608 203.702 698.275 203.702C711.197 203.702 723.343 201.053 723.343 201.053V180.976C723.343 180.976 709.133 184.151 699.519 184.151C688.998 184.151 687.49 179.556 687.49 172.4L687.461 172.415ZM629.995 86.1496C629.995 46.6681 646.531 24.0152 675.344 24.0152C704.158 24.0152 720.694 46.6681 720.694 86.1496C720.694 125.631 703.748 148.05 675.344 148.05C646.94 148.05 629.995 125.485 629.995 86.1496Z" fill="#111111"/>
<path d="M228.464 0H205.533V163.663H228.464V0Z" fill="#111111"/>
<path d="M295.277 44.1367C263.77 44.1367 243.415 68.0334 243.415 105.013C243.415 141.992 263.683 165.669 295.057 165.669C321.061 165.669 338.929 149.426 344.08 121.08L344.548 118.519H321.983L321.646 120.305C318.442 137.514 309.003 146.982 295.057 146.982C277.789 146.982 267.165 132.495 266.375 108.086H345.616V102.774C345.616 67.1554 325.846 44.1367 295.262 44.1367H295.277ZM267.561 90.979C270.663 73.0967 280.277 63.2921 294.838 63.2921C309.398 63.2921 319.261 73.0967 322.334 90.979H267.561Z" fill="#111111"/>
<path d="M416.872 44.3701C404.478 44.3701 393.224 49.4041 385.132 58.3599V46.3749H362.201V163.649H385.132V88.9002C385.132 75.9202 396.283 63.7158 409.746 63.7158C424.497 63.7158 432.633 72.1008 432.633 87.3052V163.649H455.564V83.2809C455.564 60.3647 439.657 44.3555 416.872 44.3555V44.3701Z" fill="#111111"/>
<path d="M512.762 20.3867H489.831V46.3761H463.915V65.5168H489.831V138.626C489.831 154.767 498.655 163.65 514.694 163.65H545.38V144.509H522.245C515.235 144.509 512.748 141.978 512.748 134.807V65.5022H545.366V46.3614H512.748V20.3867H512.762Z" fill="#111111"/>
<path d="M589.689 2.45703H566.114V163.647H589.689V2.45703Z" fill="#111111"/>
<path d="M155.982 46.9493H48.8637V20.9453H25.9328V46.9346H0.00195312V66.0754H25.9328V139.185C25.9328 155.326 34.7715 164.209 50.7953 164.209H81.4674V145.068H58.3463C51.3367 145.068 48.8637 142.551 48.8637 135.38V66.0754L151.606 65.7828C158.118 65.7681 163.416 71.0362 163.416 77.5628C163.416 88.3478 136.007 95.6647 136.007 95.6647C117.232 101.343 93.8475 108.44 93.8475 134.473C93.8475 153.204 108.188 165.774 129.51 165.774C143.134 165.774 154.958 160.814 163.43 151.653V164.209H186.142V77.0799C186.142 60.4269 172.65 46.9346 155.997 46.9346L155.982 46.9493ZM163.416 132.439C156.714 141.644 146.441 146.882 135.114 146.882C129.539 146.882 117.598 145.536 116.559 133.595C114.847 113.913 156.509 110.24 163.416 104.123V132.454V132.439Z" fill="#111111"/>
</g>
<defs>
<clipPath id="clip0_3114_5373">
<rect width="744.281" height="203.715" fill="white"/>
</clipPath>
</defs>
</svg>
