<svg width="663" height="176" viewBox="0 0 663 176" fill="none" xmlns="http://www.w3.org/2000/svg">
<g clip-path="url(#clip0_3114_5365)">
<path d="M0.00195312 173.409V4.09375H33.4818V71.9211L49.2575 4.09375H83.3159L64.3705 81.6349L87.2688 173.409H52.15L33.6746 91.445V173.409H0.00195312Z" fill="#111111"/>
<path d="M91.4863 173.409V4.09375H124.195V173.409H91.4863Z" fill="#111111"/>
<path d="M379.582 4.08203V173.409H346.476L329.543 88.7578V173.409H293.315L264.741 91.4453V173.409H231.08V4.08203H264.56V71.9215L294.677 4.08203H331.279L346.874 85.1905V4.08203H379.582Z" fill="#111111"/>
<path d="M433.2 174.947C419.666 174.947 409.326 170.862 402.179 162.679C395.032 154.496 391.453 142.685 391.453 127.222V46.801C391.453 32.3027 394.996 21.3115 402.083 13.8032C409.169 6.29498 419.546 2.54688 433.2 2.54688C446.855 2.54688 457.232 6.29498 464.318 13.8032C471.405 21.3115 474.948 32.3027 474.948 46.801V127.222C474.948 142.685 471.368 154.496 464.222 162.679C457.075 170.862 446.735 174.947 433.2 174.947ZM433.478 143.782C438.612 143.782 441.179 138.816 441.179 128.874V46.2225C441.179 37.8827 438.672 33.7128 433.67 33.7128C428.03 33.7128 425.21 37.9791 425.21 46.5117V129.054C425.21 134.309 425.849 138.081 427.126 140.359C428.416 142.637 430.525 143.77 433.478 143.77V143.782Z" fill="#111111"/>
<path d="M219.041 76.3802V44.2382C219.041 29.7519 215.509 18.7487 208.423 11.2404C201.337 3.7442 190.948 -0.00390625 177.305 -0.00390625C163.663 -0.00390625 153.25 3.7442 146.164 11.2404C139.077 18.7607 135.546 29.7519 135.546 44.2382V128.251C135.546 143.713 139.113 155.536 146.272 163.707C153.407 171.891 163.759 175.976 177.305 175.976C190.851 175.976 201.18 171.891 208.315 163.707C215.473 155.524 219.041 143.713 219.041 128.251V99.5919H185.284V129.89C185.284 139.845 182.717 144.81 177.595 144.81C174.63 144.81 172.521 143.665 171.243 141.387C169.954 139.11 169.303 135.338 169.303 130.083V43.961C169.303 35.4283 172.135 31.174 177.763 31.174C182.765 31.174 185.284 35.3319 185.284 43.6717V76.3802H219.041Z" fill="#111111"/>
<path d="M504.201 173.412L483.315 4H515.542L527.955 119.251L539.019 4H571.245L550.372 173.412H504.189H504.201Z" fill="#111111"/>
<path d="M572.399 173.409L588.754 4.09375H646.192L662.257 173.409H630.224L627.813 146.088H607.422L605.301 173.409H572.399ZM609.82 119.056H625.21L617.798 32.9577H616.256L609.808 119.056H609.82Z" fill="#111111"/>
</g>
<defs>
<clipPath id="clip0_3114_5365">
<rect width="662.257" height="175.98" fill="white"/>
</clipPath>
</defs>
</svg>
