<svg width="574" height="187" viewBox="0 0 574 187" fill="none" xmlns="http://www.w3.org/2000/svg">
<g clip-path="url(#clip0_3114_5351)">
<path d="M90.2911 37.2998C82.7634 32.9481 74.6118 30.793 65.7948 30.793C55.9381 30.793 48.3688 32.4508 43.0453 35.7664C37.7634 39.0405 33.854 42.8535 31.3586 47.0809H27.4076V33.9013H0V186.999H27.8235V130.468H31.8161C33.4381 132.955 35.6007 135.4 38.3041 137.846C41.0074 140.291 44.6257 142.239 49.1174 143.772C53.609 145.306 59.1405 146.093 65.7948 146.093C74.6118 146.093 82.805 143.938 90.2911 139.628C97.8188 135.276 103.849 128.976 108.383 120.604C112.916 112.232 115.203 102.12 115.203 90.2252V86.7023C115.203 74.849 112.916 64.695 108.383 56.3646C103.808 47.9927 97.7772 41.6516 90.2911 37.3413V37.2998ZM87.4214 89.5206C87.4214 100.089 84.5933 108.088 78.9371 113.6C73.2809 119.112 66.0859 121.848 57.4353 121.848C48.7847 121.848 41.756 119.112 36.0166 113.6C30.2773 108.088 27.4076 100.048 27.4076 89.5206V87.324C27.4076 76.7555 30.2773 68.7566 36.0166 63.2444C41.756 57.7322 48.9094 54.9969 57.4353 54.9969C65.9612 54.9969 73.1146 57.7322 78.854 63.2444C84.5933 68.7566 87.463 76.7555 87.463 87.324V89.5206H87.4214Z" fill="#111111"/>
<path d="M206.365 37.3827C197.673 32.9896 187.899 30.793 177.003 30.793C166.106 30.793 156.333 32.9896 147.64 37.3827C138.948 41.7759 132.086 48.1584 127.095 56.5303C122.104 64.9022 119.567 74.9319 119.567 86.6609V90.1837C119.567 101.913 122.063 111.942 127.095 120.314C132.086 128.686 138.948 135.069 147.64 139.462C156.333 143.855 166.106 146.052 177.003 146.052C187.899 146.052 197.673 143.855 206.365 139.462C215.057 135.069 221.919 128.686 226.91 120.314C231.943 111.942 234.438 101.913 234.438 90.1837V86.6609C234.438 74.9319 231.943 64.9022 226.91 56.5303C221.919 48.1584 215.057 41.8174 206.365 37.3827ZM206.615 89.5206C206.615 99.799 203.828 107.674 198.213 113.186C192.599 118.698 185.57 121.433 177.003 121.433C168.435 121.433 161.407 118.656 155.792 113.186C150.219 107.674 147.432 99.799 147.432 89.5206V87.324C147.432 77.0871 150.219 69.1711 155.792 63.6589C161.407 58.1467 168.477 55.4113 177.003 55.4113C185.529 55.4113 192.807 58.1881 198.297 63.6589C203.828 69.1711 206.573 77.0456 206.573 87.324V89.5206H206.615Z" fill="#111111"/>
<path d="M313.786 81.7298C307.09 79.326 299.604 77.3781 291.369 75.886L285.172 74.8085C280.14 73.9381 276.189 72.6533 273.236 70.9541C270.283 69.2548 268.827 66.6438 268.827 63.121C268.827 59.8882 270.241 57.3601 273.028 55.5365C275.814 53.7129 279.89 52.7597 285.172 52.7597C290.454 52.7597 294.904 53.9616 298.522 56.2825C302.141 58.6449 304.511 62.5822 305.717 68.1358L331.544 60.2198C329.049 51.392 323.767 44.3049 315.657 38.8756C307.589 33.4463 297.441 30.7109 285.214 30.7109C272.279 30.7109 261.799 33.6121 253.855 39.373C245.911 45.1753 241.919 53.5057 241.919 64.3643C241.919 71.5757 243.832 77.4195 247.658 81.9785C251.484 86.5374 256.558 90.1017 262.88 92.6298C269.202 95.1994 276.189 97.2302 283.841 98.6808L290.038 99.7998C296.484 100.96 301.226 102.452 304.178 104.276C307.131 106.099 308.587 108.711 308.587 112.109C308.587 115.507 307.048 118.284 303.971 120.564C300.893 122.843 296.11 123.962 289.622 123.962C285.38 123.962 281.429 123.341 277.811 122.097C274.192 120.854 271.198 118.782 268.744 115.839C266.332 112.896 264.585 108.876 263.587 103.737L237.968 110.327C239.881 121.766 245.412 130.593 254.52 136.727C263.629 142.903 275.357 145.97 289.622 145.97C303.887 145.97 314.742 142.861 323.06 136.644C331.378 130.428 335.537 121.558 335.537 110.12C335.537 102.494 333.582 96.4428 329.715 91.9667C325.805 87.4906 320.523 84.0507 313.827 81.6469L313.786 81.7298Z" fill="#111111"/>
<path d="M387.158 0H359.335V33.8606H331.969V56.7383H359.335V118.326C359.335 125.827 361.581 131.754 366.072 136.23C370.564 140.706 376.386 142.944 383.623 142.944H414.524V120.066H393.355C389.238 120.066 387.158 117.87 387.158 113.477V56.7383H417.186V33.8606H387.158V0Z" fill="#111111"/>
<path d="M455.08 120.523H432.58V142.945H455.08V120.523Z" fill="#111111"/>
<path d="M570.936 29.0119C568.898 26.1522 565.363 24.6602 560.414 24.6602C556.088 24.6602 550.557 27.3541 543.986 32.6591C537.498 37.9226 530.386 45.4241 522.9 54.915C515.372 64.4474 507.803 75.7205 500.441 88.4026C500.109 88.9414 499.693 89.1901 499.11 89.1901C498.861 89.1901 498.57 89.1486 498.279 89.0658C497.863 88.9414 497.613 88.7342 497.488 88.527C497.364 88.2369 497.488 87.781 497.821 87.1178L510.34 55.7439C512.585 50.1489 514.207 45.134 515.247 40.8237C516.287 36.3891 516.079 32.7834 514.665 30.1309C513.209 27.3955 509.757 26.0278 504.392 26.0278C501.023 26.0278 497.738 26.6081 494.66 27.7271C491.583 28.8461 488.879 30.2552 486.633 31.9545C484.221 33.6123 482.267 35.4359 480.811 37.3423C479.355 39.2488 478.648 41.0309 478.648 42.5644C478.648 44.015 479.23 45.0511 480.437 45.5899C480.894 45.7971 481.352 45.88 481.809 45.88C482.558 45.88 483.306 45.6313 484.013 45.134C485.261 44.4294 487.174 43.7249 489.628 43.1032C492.082 42.4815 494.619 42.15 497.197 42.15C498.819 42.15 499.609 42.9789 499.693 44.8024C499.776 46.7918 499.36 48.947 498.487 51.3093L472.867 117.953C470.996 123.134 469.457 127.444 468.251 130.884C467.045 134.324 466.421 137.225 466.421 139.504C466.421 140.706 466.837 141.867 467.627 142.944C468.417 144.022 469.374 144.892 470.538 145.555C471.703 146.26 472.826 146.591 473.824 146.591C476.236 146.591 478.482 144.519 480.728 140.25C482.849 136.23 486.467 129.682 491.458 120.813C494.244 115.798 497.53 110.244 501.19 104.318C504.891 98.308 508.676 92.3813 512.461 86.5376C516.204 80.8182 519.822 75.4303 523.191 70.5813C526.518 65.7736 529.221 61.9607 531.259 59.2253C535.834 53.3816 539.702 49.1956 542.738 46.7918C545.732 44.4709 548.103 43.269 549.85 43.269C551.721 43.269 552.969 43.9735 553.634 45.3827C554.341 46.9161 554.716 49.0298 554.716 51.7238C554.716 54.7078 555.09 57.1531 555.88 58.9766C556.67 60.8831 557.918 61.8778 559.582 61.8778C562.285 61.8778 564.78 60.6759 566.985 58.2721C569.147 55.9097 570.852 52.9257 572.1 49.3614C573.306 45.8386 573.93 42.3157 573.93 38.9587C573.93 35.1872 572.932 31.8301 570.936 29.0119Z" fill="#111111"/>
</g>
<defs>
<clipPath id="clip0_3114_5351">
<rect width="573.937" height="187" fill="white"/>
</clipPath>
</defs>
</svg>
