<svg width="708" height="144" viewBox="0 0 708 144" fill="none" xmlns="http://www.w3.org/2000/svg">
<g clip-path="url(#clip0_3114_5259)">
<path d="M599.174 8.93132L607.687 26.9603H609.424L617.925 8.93132V26.9377H621.544V0.632812H618.049L608.567 20.432L599.028 0.632812H595.566V26.9603H599.174V8.93132Z" fill="#111111"/>
<path d="M627.285 26.6883C628.277 27.2295 629.495 27.5001 630.96 27.5001C632.798 27.5001 634.354 27.128 635.606 26.3951C636.553 25.8426 637.365 25.0759 638.064 24.0837V26.9476H641.446V14.793C641.446 13.9699 641.413 13.1919 641.334 12.4703C641.255 11.7487 641.063 11.0722 640.747 10.4182C640.138 9.11032 639.18 8.16321 637.872 7.55435C636.564 6.95677 635.02 6.65234 633.261 6.65234C630.983 6.65234 629.156 7.14845 627.781 8.15194C626.405 9.15542 625.481 10.4972 624.996 12.1884L628.559 13.2821C628.897 12.1772 629.506 11.3766 630.363 10.8918C631.231 10.407 632.178 10.1702 633.215 10.1702C634.862 10.1702 636.023 10.5423 636.7 11.2977C637.286 11.9517 637.59 12.9213 637.658 14.1729C636.914 14.2743 636.181 14.3871 635.425 14.4886C634.196 14.6577 633.035 14.8381 631.93 15.041C630.825 15.2327 629.822 15.4582 628.954 15.7176C627.939 16.0445 627.093 16.473 626.394 17.0029C625.695 17.5329 625.176 18.1755 624.827 18.931C624.477 19.6864 624.297 20.5659 624.297 21.5581C624.297 22.6292 624.545 23.6102 625.052 24.5122C625.56 25.4029 626.304 26.1245 627.296 26.6657L627.285 26.6883ZM628.424 20.2051C628.66 19.8443 628.987 19.5286 629.393 19.2692C629.799 19.0099 630.273 18.7957 630.791 18.6153C631.411 18.4236 632.122 18.2545 632.922 18.1079C633.723 17.9726 634.614 17.826 635.595 17.6794C636.226 17.5892 636.914 17.4878 637.635 17.375C637.635 17.702 637.613 18.0628 637.602 18.48C637.568 19.2128 637.455 19.8668 637.241 20.4531C637.094 21.0958 636.778 21.7159 636.305 22.3135C635.831 22.9111 635.2 23.3959 634.422 23.7793C633.644 24.1626 632.708 24.3543 631.626 24.3543C630.814 24.3543 630.137 24.2303 629.619 23.971C629.1 23.7116 628.705 23.3734 628.446 22.9336C628.187 22.5052 628.063 22.0316 628.063 21.513C628.063 20.9943 628.187 20.5433 628.424 20.1825V20.2051Z" fill="#111111"/>
<path d="M653.711 7.11654C653.068 7.16164 652.437 7.28567 651.816 7.47735C651.196 7.6803 650.644 7.96218 650.148 8.32298C649.64 8.66124 649.189 9.10097 648.795 9.6309C648.626 9.86768 648.468 10.1157 648.321 10.3751V7.20674H644.916V26.9495H648.772V16.9936C648.772 16.2156 648.851 15.4714 649.009 14.7724C649.167 14.0733 649.426 13.4306 649.787 12.8669C650.148 12.2918 650.633 11.807 651.264 11.4011C651.918 10.9726 652.64 10.7246 653.429 10.6457C654.218 10.578 654.928 10.6231 655.571 10.7922V7.20674C654.973 7.09399 654.353 7.06017 653.711 7.10527V7.11654Z" fill="#111111"/>
<path d="M661.969 0.269531H658.146V3.97905H661.969V0.269531Z" fill="#111111"/>
<path d="M661.969 7.21875H658.146V26.9615H661.969V7.21875Z" fill="#111111"/>
<path d="M670.014 16.6773C670.014 15.5047 670.149 14.5124 670.409 13.7006C670.668 12.8888 671.029 12.2236 671.491 11.7275C671.953 11.2314 672.483 10.8706 673.092 10.6451C673.701 10.4196 674.344 10.3068 675.031 10.3068C676.08 10.3068 676.926 10.521 677.579 10.9495C678.233 11.378 678.741 11.9417 679.102 12.6295C679.462 13.3286 679.71 14.0727 679.835 14.8845C679.959 15.6963 680.026 16.4856 680.026 17.2523V26.9602H683.905V15.9895C683.905 15.3806 683.848 14.6703 683.736 13.8698C683.623 13.0692 683.42 12.2461 683.116 11.4005C682.811 10.5549 682.371 9.77689 681.785 9.06655C681.21 8.35622 680.455 7.78119 679.53 7.34146C678.606 6.90173 677.455 6.6875 676.091 6.6875C674.31 6.6875 672.799 7.07085 671.536 7.83756C670.758 8.31112 670.115 8.9087 669.563 9.61904V7.21743H666.146V26.9602H670.025V16.6886L670.014 16.6773Z" fill="#111111"/>
<path d="M690.716 26.2152C692.193 27.0721 693.918 27.5005 695.88 27.5005C697.842 27.5005 699.533 27.0157 701.089 26.046C702.645 25.0764 703.818 23.7121 704.584 21.9419L700.841 20.758C700.356 21.7728 699.668 22.5507 698.8 23.0919C697.932 23.6331 696.895 23.9038 695.699 23.9038C693.884 23.9038 692.497 23.3062 691.528 22.1223C690.738 21.1413 690.287 19.8109 690.152 18.1647H704.844C704.99 15.7969 704.708 13.7561 704.009 12.0423C703.31 10.3285 702.25 8.99802 700.841 8.06218C699.432 7.12634 697.718 6.66406 695.699 6.66406C693.681 6.66406 692.091 7.09252 690.637 7.9607C689.182 8.82889 688.055 10.0466 687.243 11.6364C686.431 13.2262 686.025 15.0866 686.025 17.2514C686.025 19.2922 686.443 21.0737 687.266 22.6184C688.089 24.1631 689.239 25.3582 690.716 26.2152ZM691.528 11.8506C692.486 10.6442 693.929 10.0466 695.846 10.0466C697.571 10.0466 698.868 10.5991 699.713 11.6928C700.345 12.5159 700.751 13.6772 700.931 15.1881H690.242C690.445 13.8238 690.862 12.7075 691.539 11.8619L691.528 11.8506Z" fill="#111111"/>
<path d="M612.389 54.5593H599.389V46.4299H610.19V42.8218H599.389V35.4479H612.389V31.8398H595.566V58.1673H612.389V54.5593Z" fill="#111111"/>
<path d="M632.434 42.6075C632.129 41.7619 631.69 40.9952 631.103 40.2736C630.528 39.5633 629.773 38.9882 628.848 38.5485C627.924 38.1088 626.774 37.8945 625.41 37.8945C623.628 37.8945 622.117 38.2779 620.854 39.0446C620.076 39.5182 619.434 40.1157 618.881 40.8261V38.4245H615.465V58.1672H619.343V47.8956C619.343 46.723 619.479 45.7308 619.738 44.9189C619.997 44.1071 620.358 43.4419 620.821 42.9458C621.283 42.4497 621.813 42.0889 622.422 41.8634C623.031 41.6379 623.673 41.5251 624.361 41.5251C625.41 41.5251 626.255 41.7394 626.909 42.1678C627.563 42.5963 628.07 43.16 628.431 43.8478C628.792 44.5469 629.04 45.291 629.164 46.1028C629.288 46.9146 629.356 47.7039 629.356 48.4706V58.1785H633.234V47.2078C633.234 46.5989 633.178 45.8886 633.065 45.0881C632.953 44.2875 632.75 43.4644 632.445 42.6188L632.434 42.6075Z" fill="#111111"/>
<path d="M650.173 39.2731C648.764 38.3373 647.05 37.875 645.032 37.875C643.013 37.875 641.423 38.3035 639.969 39.1716C638.514 40.0398 637.387 41.2575 636.575 42.8473C635.763 44.4371 635.357 46.2975 635.357 48.4624C635.357 50.4919 635.763 52.2846 636.586 53.8293C637.41 55.374 638.56 56.5692 640.037 57.4261C641.514 58.283 643.239 58.7115 645.201 58.7115C647.162 58.7115 648.854 58.2266 650.41 57.257C651.966 56.2873 653.138 54.923 653.905 53.1528L650.162 51.9689C649.677 52.9837 648.989 53.7617 648.121 54.3029C647.253 54.8441 646.215 55.1147 645.02 55.1147C643.205 55.1147 641.818 54.5171 640.848 53.3332C640.059 52.3523 639.608 51.0218 639.473 49.3756H654.164C654.311 47.0079 654.029 44.9671 653.33 43.2532C652.631 41.5394 651.571 40.209 650.162 39.2731H650.173ZM639.563 46.399C639.766 45.0347 640.183 43.9185 640.86 43.0728C641.818 41.8664 643.261 41.2688 645.178 41.2688C646.903 41.2688 648.2 41.8213 649.045 42.915C649.688 43.7381 650.083 44.8994 650.263 46.4103H639.574L639.563 46.399Z" fill="#111111"/>
<path d="M665.773 38.324C665.13 38.3691 664.499 38.4931 663.879 38.6848C663.259 38.8878 662.706 39.1697 662.21 39.5305C661.703 39.8687 661.252 40.3084 660.857 40.8384C660.688 41.0751 660.53 41.3232 660.384 41.5825V38.4142H656.979V58.157H660.835V48.201C660.835 47.4231 660.914 46.6789 661.071 45.9798C661.229 45.2808 661.489 44.6381 661.849 44.0743C662.21 43.4993 662.695 43.0145 663.326 42.6086C663.98 42.1801 664.702 41.9321 665.491 41.8644C666.28 41.7968 666.991 41.8419 667.634 42.011V38.4255C667.036 38.3127 666.416 38.2789 665.773 38.324Z" fill="#111111"/>
<path d="M682.835 40.209C682.497 39.8594 682.136 39.5212 681.73 39.2393C680.456 38.326 678.889 37.875 677.028 37.875C675.168 37.875 673.578 38.326 672.225 39.2393C670.883 40.1526 669.835 41.3816 669.113 42.9488C668.38 44.5161 668.02 46.2863 668.02 48.282C668.02 50.2777 668.38 52.0366 669.102 53.6151C669.824 55.1936 670.861 56.4339 672.191 57.3472C673.522 58.2605 675.112 58.7227 676.949 58.7227C678.787 58.7227 680.422 58.2605 681.708 57.3472C681.944 57.178 682.17 56.9751 682.384 56.7834V58.6776C682.395 59.8051 682.204 60.7635 681.809 61.5302C681.414 62.297 680.828 62.872 680.061 63.2553C679.295 63.6387 678.37 63.8304 677.288 63.8304C676.408 63.8304 675.574 63.6387 674.785 63.2441C673.995 62.8494 673.387 62.2406 672.958 61.3949L669.429 63.1877C669.97 64.1235 670.647 64.9128 671.459 65.5555C672.27 66.1982 673.184 66.683 674.176 67.01C675.168 67.3369 676.194 67.5061 677.254 67.5061C678.787 67.5061 680.163 67.2918 681.381 66.8634C682.598 66.4349 683.591 65.7922 684.38 64.9241C685.169 64.0559 685.699 62.9622 685.981 61.6317C686.082 61.1582 686.15 60.6846 686.184 60.2111C686.218 59.7375 686.24 59.2301 686.24 58.7115V38.4388H682.858V40.2315L682.835 40.209ZM682.283 51.9013C681.922 52.9499 681.336 53.7729 680.546 54.3705C679.757 54.9681 678.731 55.2613 677.479 55.2613C676.228 55.2613 675.258 54.9456 674.458 54.3254C673.657 53.7053 673.06 52.8709 672.665 51.8111C672.27 50.7512 672.067 49.5786 672.067 48.2707C672.067 46.9628 672.259 45.8127 672.665 44.7641C673.06 43.7155 673.668 42.8812 674.48 42.261C675.292 41.6409 676.341 41.3252 677.603 41.3252C678.799 41.3252 679.78 41.6183 680.558 42.2047C681.336 42.791 681.899 43.6028 682.271 44.6514C682.643 45.6999 682.824 46.9064 682.824 48.2707C682.824 49.635 682.643 50.8414 682.271 51.89L682.283 51.9013Z" fill="#111111"/>
<path d="M703.377 38.4258L697.807 53.2639L691.966 38.4258H687.986L695.969 58.0783L692.722 66.9406H696.352L707.256 38.4258H703.377Z" fill="#111111"/>
<path d="M75.3086 42.3945C75.3086 47.0624 70.2574 49.994 66.2096 47.66L28.607 26.0568C26.724 24.9744 25.5627 22.9675 25.5627 20.7914V0H0.00195312V114.15H25.5627V62.7236C25.5627 58.0782 30.5689 55.1467 34.6166 57.4356L72.208 78.6103C74.1247 79.6814 75.2973 81.7109 75.2973 83.8983V114.15H100.847V0H75.2973V42.3945H75.3086Z" fill="#111111"/>
<path d="M177.435 31.0987C171.696 28.201 164.626 26.7578 156.226 26.7578C147.826 26.7578 141.152 28.1447 135.187 30.9296C129.223 33.7146 124.566 37.6609 121.217 42.7685C117.868 47.8762 116.188 53.8407 116.188 60.6622V62.5338H140.554V60.6622C140.554 56.3438 141.693 53.3333 143.959 51.6308C146.225 49.9282 149.924 49.0713 155.031 49.0713C160.139 49.0713 164.006 49.8155 166.622 51.2812C169.238 52.7583 170.535 55.9943 170.535 60.9891V63.7967L141.231 68.1376C135.322 69.0509 130.35 70.5505 126.325 72.6476C122.288 74.7561 119.221 77.4508 117.124 80.7432C115.016 84.0355 113.979 87.9029 113.979 92.3227C113.979 100.046 116.561 105.898 121.736 109.867C126.9 113.847 133.293 115.831 140.904 115.831C146.237 115.831 150.781 115.155 154.535 113.791C158.279 112.426 161.436 110.724 163.995 108.683C166.554 106.642 168.561 104.59 170.039 102.549H171.065V114.129H194.742V63.3569C194.742 55.6334 193.299 49.0488 190.401 43.5916C187.504 38.1344 183.185 33.9626 177.458 31.0649L177.435 31.0987ZM167.468 90.3947C165.427 92.7287 162.777 94.3072 159.541 95.1641C156.305 96.021 152.923 96.4382 149.405 96.4382C145.662 96.4382 142.877 95.9872 141.061 95.0739C139.246 94.1606 138.333 92.5821 138.333 90.3045C138.333 88.4892 138.953 87.1249 140.204 86.2116C141.456 85.3096 143.384 84.6218 146 84.1708L170.535 80.3486C170.523 84.7346 169.497 88.0833 167.468 90.3947Z" fill="#111111"/>
<path d="M254.359 64.2331L249.376 79.8491C249.207 80.3903 248.699 80.7624 248.124 80.7624C247.549 80.7624 247.087 80.4242 246.895 79.9055L241.077 64.2331L227.107 28.457H198.66L234.571 110.63L233.072 113.81C231.82 116.538 230.433 118.264 228.9 119.008C227.367 119.741 224.954 120.113 221.661 120.113H207.353V141.242C209.056 141.693 211.379 142.122 214.344 142.516C217.298 142.911 220.196 143.114 223.037 143.114C228.72 143.114 233.602 142.437 237.683 141.073C241.776 139.709 245.373 137.33 248.496 133.913C251.619 130.508 254.371 125.908 256.761 120.113L294.927 28.457H266.48L254.382 64.2331H254.359Z" fill="#111111"/>
<path d="M363.568 69.096C359.825 66.886 354.931 65.206 348.922 64.0673L333.249 60.8313C328.141 59.8053 324.906 58.8469 323.541 57.9336C322.177 57.0203 321.5 55.5432 321.5 53.5024C321.5 51.4616 322.323 49.8944 323.97 48.812C325.616 47.7296 328.998 47.1884 334.106 47.1884C337.737 47.1884 340.522 47.5041 342.45 48.1242C344.378 48.7443 345.686 49.714 346.373 51.0219C347.05 52.3298 347.399 53.9422 347.399 55.8815V58.2718H371.765V55.8815C371.765 49.4096 370.141 44.0088 366.905 39.7017C363.669 35.3833 359.261 32.1473 353.702 29.9938C348.132 27.8402 341.829 26.7578 334.794 26.7578C322.526 26.7578 313.247 29.2834 306.944 34.3347C300.641 39.386 297.484 45.8917 297.484 53.8407C297.484 59.1851 298.51 63.5824 300.551 67.0439C302.592 70.5054 305.546 73.2678 309.413 75.3086C313.27 77.3494 317.983 78.8828 323.552 79.9088L336.496 82.2992C342.179 83.3252 345.889 84.261 347.659 85.1067C349.418 85.9636 350.297 87.5759 350.297 89.9663C350.297 91.3305 350.015 92.4355 349.451 93.2924C348.876 94.1493 347.749 94.7695 346.046 95.1641C344.344 95.5587 341.728 95.7617 338.21 95.7617C334.117 95.7617 330.915 95.57 328.581 95.1641C326.247 94.7695 324.579 94.0028 323.552 92.864C322.526 91.7252 322.019 90.1354 322.019 88.0946V84.5204H297.653V85.0277C297.653 95.3671 300.98 103.091 307.621 108.198C314.262 113.306 324.285 115.865 337.692 115.865C349.621 115.865 358.731 113.509 365.034 108.796C371.337 104.083 374.494 97.701 374.494 89.628C374.494 84.9714 373.614 80.9349 371.855 77.5298C370.096 74.1247 367.345 71.3172 363.591 69.096H363.568Z" fill="#111111"/>
<path d="M417.398 0H392.874L392.469 28.4472H378.217V49.5768H391.848V86.0293C391.848 96.1431 394.577 103.404 400.023 107.835C405.469 112.267 413.767 114.476 424.896 114.476C427.963 114.476 430.996 114.307 434.006 113.969C437.017 113.631 439.542 113.236 441.583 112.774V91.4752H431.018C425.572 91.4752 421.931 91.0242 420.115 90.1109C418.3 89.1976 417.387 86.875 417.387 83.1203V49.5542H441.583V28.4246H417.387V0H417.398Z" fill="#111111"/>
<path d="M478.055 28.457H452.494V114.148H478.055V28.457Z" fill="#111111"/>
<path d="M477.539 18.7506V0H452.158L452.496 18.7506H477.539Z" fill="#111111"/>
<path d="M564.592 31.1889C559.936 28.2349 553.858 26.7578 546.36 26.7578C541.365 26.7578 536.991 27.4681 533.247 28.8888C529.504 30.3095 526.347 32.2714 523.788 34.7632C521.228 37.2662 519.153 40.164 517.575 43.4563H516.549V28.4604H492.871V114.151H518.251V65.6007C518.251 61.2823 518.872 57.911 520.123 55.4643C521.375 53.0176 523.28 51.2925 525.828 50.2665C528.376 49.2404 531.703 48.7331 535.796 48.7331C542.267 48.7331 546.699 49.9508 549.089 52.3975C551.479 54.8442 552.663 59.016 552.663 64.9242V114.163H578.224V59.8165C578.224 53.7956 577.119 48.2595 574.898 43.2082C572.688 38.157 569.249 34.1543 564.592 31.2002V31.1889Z" fill="#111111"/>
<path d="M606.67 104.07C607.042 103.54 607.234 102.897 607.234 102.164C607.234 101.668 607.144 101.217 606.975 100.811C606.805 100.394 606.535 100.044 606.185 99.7738C605.836 99.5032 605.396 99.3228 604.889 99.2326C604.765 99.2101 604.641 99.1988 604.505 99.1875C604.381 99.1875 604.268 99.1875 604.178 99.1875H600.469V108.253H602.171V105.163H604.088L605.588 108.253H607.516L605.824 104.791C606.151 104.611 606.433 104.374 606.648 104.07H606.67ZM605.419 102.728C605.362 102.908 605.272 103.066 605.137 103.201C605.013 103.337 604.844 103.416 604.629 103.472C604.55 103.495 604.471 103.506 604.381 103.506C604.291 103.506 604.212 103.506 604.133 103.506H602.183V100.8H604.133C604.212 100.8 604.291 100.8 604.381 100.8C604.46 100.8 604.539 100.822 604.629 100.845C604.844 100.89 605.013 100.98 605.137 101.116C605.272 101.251 605.362 101.409 605.419 101.589C605.475 101.77 605.509 101.961 605.509 102.153C605.509 102.345 605.475 102.525 605.419 102.717V102.728Z" fill="#111111"/>
<path d="M603.946 92.7266C597.892 92.7266 592.953 97.6538 592.953 103.709C592.953 109.763 597.88 114.691 603.946 114.691C610.012 114.691 614.928 109.763 614.928 103.709C614.928 97.6538 610.001 92.7266 603.946 92.7266ZM603.946 112.898C598.884 112.898 594.768 108.782 594.768 103.72C594.768 98.6573 598.884 94.5419 603.946 94.5419C609.009 94.5419 613.124 98.6573 613.124 103.72C613.124 108.782 609.009 112.898 603.946 112.898Z" fill="#111111"/>
</g>
<defs>
<clipPath id="clip0_3114_5259">
<rect width="707.256" height="143.115" fill="white"/>
</clipPath>
</defs>
</svg>
