<svg width="410" height="217" viewBox="0 0 410 217" fill="none" xmlns="http://www.w3.org/2000/svg">
<g clip-path="url(#clip0_3114_5253)">
<path d="M86.4444 99.8655C80.4942 96.7017 72.3692 93.787 62.2961 91.1894C53.0386 88.8561 45.9632 86.8324 41.2665 85.1712C36.751 83.5704 33.7154 81.9318 32.243 80.2932C30.8385 78.7302 30.1513 76.8575 30.1513 74.5771C30.1513 70.5524 32.0391 67.464 35.9203 65.1232C39.5599 62.9334 44.3095 61.8234 50.0408 61.8234C50.6977 61.8234 51.3698 61.8385 52.0569 61.8687C58.9963 62.1481 64.6898 63.8697 68.9788 66.9807C73.2301 70.0616 75.6615 74.1693 76.4166 79.523L76.6356 81.0785L103.17 76.2383L102.996 74.8187C102.083 67.5018 99.2963 61.0305 94.7203 55.5787C90.1746 50.157 84.1489 45.9133 76.8244 42.9684C69.5527 40.0462 61.1635 38.5586 51.9059 38.5586C42.6483 38.5586 34.0024 40.0839 26.9044 43.0892C19.7309 46.1247 14.0827 50.4892 10.1184 56.0544C6.13145 61.6572 4.10777 68.2946 4.10777 75.7777C4.10777 81.8412 5.46696 87.0967 8.14003 91.4008C10.8131 95.6974 15.3135 99.4804 21.5205 102.637C27.5764 105.725 35.8599 108.64 46.1142 111.29C55.3567 113.767 62.3188 115.866 66.8117 117.527C72.1201 119.498 74.2646 121.25 75.1178 122.375C76.3411 123.968 76.9527 126.128 76.9527 128.786C76.9527 133.46 75.1556 137.024 71.4631 139.682C67.6649 142.416 62.2735 143.805 55.4322 143.805C47.8359 143.805 41.425 142.091 36.3809 138.716C31.3368 135.34 28.2032 130.863 26.8138 125.018L26.4891 123.666L0 127.774L0.271838 129.292C2.38613 141.253 8.23819 150.669 17.6468 157.269C26.9723 163.815 39.1673 167.13 53.8918 167.13C68.6164 167.13 81.4607 163.649 90.2577 156.778C99.1604 149.823 103.676 140.113 103.676 127.925C103.676 121.582 102.324 116.078 99.6663 111.562C97.0008 107.039 92.5532 103.105 86.4519 99.8655H86.4444Z" fill="#111111"/>
<path d="M225.224 41.8711L191.266 132.31L188.291 140.156H165.804L127.151 41.8711H99.8535L149.245 163.413H179.472L159.847 216.829H184.984L251.826 41.8711H225.224Z" fill="#111111"/>
<path d="M290.625 0H264.461V25.3942H290.625V0Z" fill="#111111"/>
<path d="M264.461 175.532C264.461 181.195 263.177 185.401 260.64 188.044C258.118 190.664 253.98 191.993 248.339 191.993H240.766V216.836H258.254C268.538 216.836 276.588 214.02 282.191 208.462C287.786 202.905 290.625 194.976 290.625 184.911V41.8711H264.461V175.532Z" fill="#111111"/>
<path d="M409.281 74.9817C408.828 70.4889 407.59 66.1621 405.619 62.1525C401.806 53.9974 395.72 47.949 387.527 44.1735C379.462 40.4583 369.887 38.5781 359.067 38.5781C345.067 38.5781 333.658 41.7194 325.17 47.9037C316.66 54.1031 310.823 62.5678 307.803 73.0638L307.395 74.4909L331.747 81.9815L332.193 80.5393C334.118 74.2719 337.554 69.7262 342.394 67.0305C347.363 64.2668 352.898 62.8698 358.855 62.8698C368.279 62.8698 374.969 64.9841 378.73 69.1523C381.818 72.5729 383.623 77.6246 384.114 84.1714C380.066 84.7377 376.011 85.304 371.934 85.8779C364.587 86.9048 357.466 88.0148 350.776 89.1928C344.07 90.3708 337.969 91.7526 332.608 93.3232C326.378 95.3469 321.032 98.0426 316.728 101.327C312.364 104.657 309.018 108.758 306.798 113.515C304.586 118.249 303.461 123.799 303.461 130.029C303.461 136.727 305.062 142.964 308.233 148.574C311.405 154.2 316.147 158.768 322.323 162.159C328.478 165.534 336.172 167.248 345.203 167.248C356.515 167.248 366.21 164.937 374.018 160.369C378.669 157.651 382.883 154.041 386.568 149.609V163.933H409.976V89.1324C409.976 84.1109 409.749 79.3462 409.304 74.9817H409.281ZM383.736 111.332C383.562 115.569 382.868 119.427 381.675 122.795L381.644 122.878L381.622 122.969C380.799 126.623 379.002 130.203 376.291 133.601C373.58 137.006 369.933 139.853 365.455 142.058C360.985 144.263 355.533 145.373 349.258 145.373C344.591 145.373 340.733 144.648 337.796 143.213C334.919 141.809 332.759 139.913 331.377 137.572C329.98 135.216 329.27 132.596 329.27 129.802C329.27 127.008 329.912 124.524 331.173 122.584C332.48 120.575 334.284 118.838 336.55 117.419C338.906 115.946 341.639 114.655 344.629 113.613C348.299 112.465 352.55 111.461 357.277 110.63C362.08 109.785 367.501 108.916 373.384 108.048C376.683 107.557 380.187 107.036 383.895 106.477C383.849 107.972 383.789 109.596 383.721 111.34L383.736 111.332Z" fill="#111111"/>
</g>
<defs>
<clipPath id="clip0_3114_5253">
<rect width="409.954" height="216.836" fill="white"/>
</clipPath>
</defs>
</svg>
