<svg width="804" height="166" viewBox="0 0 804 166" fill="none" xmlns="http://www.w3.org/2000/svg">
<g clip-path="url(#clip0_3114_5330)">
<path d="M21.0528 38.1858C16.6 39.9161 12.7932 42.3848 9.71312 45.534C6.65614 48.6718 4.23363 52.5247 2.53787 56.9775C0.853647 61.3957 0 66.31 0 71.5818V129.63H17.569V71.5818C17.569 65.5371 19.0917 60.9689 22.2294 57.6235C25.321 54.3243 29.6816 52.7208 35.5533 52.7208H54.7603L58.6479 35.6133H35.5533C30.3276 35.6133 25.4479 36.4785 21.0528 38.1858Z" fill="#111111"/>
<path d="M85.7412 35.6133H67.8262V129.641H85.7412V35.6133Z" fill="#111111"/>
<path d="M180.878 48.0556C177.128 43.6605 172.641 40.1652 167.542 37.6504C162.409 35.1125 156.768 33.832 150.804 33.832C143.282 33.832 136.499 35.597 130.628 39.0808C127.029 41.2149 123.845 43.9143 121.111 47.1328L121.007 35.6085H103.461V165.248H121.03V118.251C123.764 121.4 126.925 124.053 130.512 126.176C136.396 129.66 143.19 131.425 150.723 131.425C156.595 131.425 162.178 130.144 167.323 127.606C172.433 125.092 176.932 121.562 180.693 117.097C184.419 112.679 187.407 107.488 189.564 101.662C191.721 95.8368 192.817 89.4921 192.817 82.8129C192.817 76.1337 191.756 69.4314 189.668 63.5482C187.568 57.6419 184.615 52.4392 180.878 48.0672V48.0556ZM173.16 94.937C171.776 98.6746 169.838 101.974 167.404 104.754C164.993 107.511 162.086 109.737 158.775 111.364C155.51 112.967 151.911 113.775 148.047 113.775C144.182 113.775 140.537 113.014 137.261 111.514C133.962 110.003 131.066 107.892 128.655 105.25C126.244 102.608 124.352 99.3552 123.037 95.5946C121.699 91.7878 121.018 87.5426 121.018 82.986C121.018 78.4293 121.699 73.9189 123.037 69.9967C124.364 66.1091 126.267 62.7407 128.678 59.9721C131.078 57.2266 133.962 55.0694 137.249 53.5697C140.525 52.0701 144.159 51.3087 148.035 51.3087C151.911 51.3087 155.718 52.0701 158.994 53.5697C162.282 55.0809 165.131 57.2035 167.473 59.8913C169.838 62.6023 171.741 65.9592 173.125 69.8583C174.521 73.792 175.225 78.1525 175.225 82.8245C175.225 87.1273 174.521 91.211 173.137 94.9486L173.16 94.937Z" fill="#111111"/>
<path d="M280.897 48.0556C277.148 43.6605 272.661 40.1652 267.562 37.6504C262.428 35.1125 256.787 33.832 250.823 33.832C243.302 33.832 236.519 35.597 230.647 39.0808C227.048 41.2149 223.864 43.9143 221.13 47.1328L221.026 35.6085H203.48V165.248H221.049V118.251C223.783 121.4 226.944 124.053 230.532 126.176C236.415 129.66 243.21 131.425 250.743 131.425C256.614 131.425 262.198 130.144 267.343 127.606C272.453 125.092 276.952 121.562 280.712 117.097C284.439 112.679 287.426 107.488 289.584 101.662C291.741 95.8368 292.837 89.4921 292.837 82.8129C292.837 76.1337 291.775 69.4314 289.687 63.5482C287.588 57.6419 284.635 52.4392 280.897 48.0672V48.0556ZM273.18 94.937C271.795 98.6746 269.857 101.974 267.423 104.754C265.012 107.511 262.105 109.737 258.795 111.364C255.53 112.967 251.931 113.775 248.066 113.775C244.202 113.775 240.556 113.014 237.28 111.514C233.981 110.003 231.086 107.892 228.675 105.25C226.264 102.608 224.372 99.3552 223.057 95.5946C221.719 91.7878 221.038 87.5426 221.038 82.986C221.038 78.4293 221.719 73.9189 223.057 69.9967C224.383 66.1091 226.287 62.7407 228.698 59.9721C231.097 57.2266 233.981 55.0694 237.269 53.5697C240.545 52.0701 244.179 51.3087 248.055 51.3087C251.931 51.3087 255.738 52.0701 259.014 53.5697C262.301 55.0809 265.151 57.2035 267.493 59.8913C269.857 62.6023 271.761 65.9592 273.145 69.8583C274.541 73.792 275.245 78.1525 275.245 82.8245C275.245 87.1273 274.541 91.211 273.157 94.9486L273.18 94.937Z" fill="#111111"/>
<path d="M321.251 0H303.336V129.639H321.251V0Z" fill="#111111"/>
<path d="M407.512 47.3635C403.625 43.1529 398.907 39.8076 393.519 37.4312C388.109 35.0433 382.064 33.832 375.558 33.832C369.052 33.832 362.996 35.0433 357.597 37.4312C352.187 39.8191 347.503 43.1991 343.662 47.4904C339.843 51.7586 336.833 56.9497 334.733 62.9253C332.634 68.8662 331.572 75.43 331.572 82.4553C331.572 89.4806 332.634 96.4021 334.722 102.343C336.821 108.319 339.82 113.533 343.639 117.859C347.48 122.208 352.152 125.599 357.516 127.929C362.869 130.248 368.879 131.436 375.385 131.436C385.767 131.436 394.731 128.633 402.033 123.096C409.323 117.57 414.491 109.703 417.387 99.7244L418.31 96.529H400.868L400.256 98.1324C398.261 103.335 395.111 107.511 390.889 110.522C386.702 113.521 381.718 115.044 376.077 115.044C372.178 115.044 368.602 114.363 365.43 113.014C362.269 111.675 359.477 109.749 357.147 107.28C354.794 104.789 352.902 101.789 351.541 98.3632C350.445 95.6061 349.706 92.5491 349.337 89.2384H419.717V81.9362C419.717 74.9225 418.656 68.4048 416.556 62.5677C414.445 56.6959 411.4 51.5971 407.512 47.3866V47.3635ZM349.36 74.4264C349.741 71.4617 350.491 68.6585 351.598 66.063C353.017 62.7522 354.898 59.8913 357.193 57.5842C359.466 55.277 362.2 53.4544 365.326 52.1739C368.452 50.8819 371.89 50.2244 375.558 50.2244C383.183 50.2244 389.159 52.5661 393.819 57.3881C397.972 61.6794 400.649 67.4011 401.802 74.4264H349.372H349.36Z" fill="#111111"/>
<path d="M499.729 47.4826C495.888 43.1913 491.204 39.8113 485.794 37.4234C480.384 35.0355 474.339 33.8242 467.833 33.8242C461.327 33.8242 455.27 35.0355 449.872 37.4234C444.473 39.8113 439.766 43.1451 435.879 47.3557C431.991 51.5662 428.957 56.6766 426.835 62.5368C424.735 68.3739 423.674 74.8916 423.674 81.9053V89.2075H494.054C493.684 92.5183 492.958 95.5868 491.85 98.3323C490.489 101.758 488.597 104.758 486.244 107.249C483.914 109.718 481.122 111.645 477.961 112.983C474.789 114.332 471.213 115.013 467.314 115.013C461.673 115.013 456.689 113.49 452.502 110.491C448.28 107.48 445.13 103.304 443.135 98.1016L442.523 96.4981H425.081L426.004 99.6935C428.9 109.683 434.068 117.539 441.358 123.065C448.649 128.602 457.624 131.405 468.006 131.405C474.512 131.405 480.522 130.229 485.875 127.898C491.239 125.568 495.911 122.177 499.752 117.828C503.571 113.502 506.57 108.288 508.669 102.312C510.757 96.3712 511.819 89.692 511.819 82.4244C511.819 75.1569 510.757 68.8353 508.658 62.8944C506.558 56.9188 503.548 51.7277 499.729 47.4595V47.4826ZM441.577 74.4301C442.731 67.4049 445.407 61.6831 449.56 57.3918C454.221 52.5699 460.196 50.2281 467.821 50.2281C471.49 50.2281 474.927 50.8856 478.053 52.1776C481.168 53.4696 483.914 55.2923 486.186 57.5879C488.482 59.9066 490.362 62.7559 491.781 66.0667C492.888 68.6507 493.638 71.4539 494.019 74.4301H441.589H441.577Z" fill="#111111"/>
<path d="M587.379 47.1236C584.668 43.8936 581.53 41.2058 577.989 39.0832C572.163 35.5994 565.334 33.8344 557.686 33.8344C551.699 33.8344 546.058 35.1149 540.913 37.6528C535.814 40.1676 531.292 43.6975 527.462 48.1503C523.667 52.5685 520.656 57.7712 518.487 63.5967C516.33 69.4338 515.234 75.767 515.234 82.4462C515.234 89.1254 516.33 95.8623 518.487 101.734C520.656 107.629 523.655 112.831 527.393 117.192C531.165 121.587 535.699 125.094 540.878 127.609C546.093 130.135 551.768 131.427 557.755 131.427C565.427 131.427 572.279 129.628 578.116 126.075C581.623 123.94 584.749 121.253 587.448 118.046L587.344 129.639H604.937V0H587.368V47.1236H587.379ZM585.36 95.1702C584.034 99 582.142 102.345 579.731 105.114C577.331 107.86 574.482 110.017 571.264 111.528C568.057 113.028 564.423 113.789 560.443 113.789C556.463 113.789 552.783 113.028 549.519 111.528C546.231 110.017 543.347 107.883 540.959 105.195C538.548 102.484 536.622 99.1615 535.249 95.3317C533.865 91.4787 533.161 87.1413 533.161 82.4693C533.161 78.1549 533.865 74.0366 535.249 70.2413C536.622 66.4576 538.548 63.1238 540.982 60.3437C543.382 57.5866 546.3 55.3602 549.657 53.7337C552.968 52.1302 556.59 51.3111 560.443 51.3111C564.296 51.3111 568.057 52.0725 571.264 53.5606C574.494 55.0718 577.355 57.2059 579.754 59.9053C582.165 62.6162 584.057 65.9039 585.372 69.6646C586.71 73.4714 587.379 77.7165 587.379 82.2847C587.379 86.8529 586.698 91.3057 585.36 95.1817V95.1702Z" fill="#111111"/>
<path d="M687.405 47.6095C684.705 44.3564 681.591 41.5993 678.072 39.3729C672.235 35.693 665.394 33.8242 657.712 33.8242C651.736 33.8242 646.06 35.1047 640.869 37.6426C635.701 40.1574 631.156 43.6873 627.326 48.1401C623.52 52.5699 620.532 57.7725 618.432 63.6096C616.333 69.4352 615.271 75.7683 615.271 82.436C615.271 89.1037 616.333 95.829 618.432 101.701C620.543 107.607 623.543 112.821 627.361 117.193C631.179 121.577 635.748 125.084 640.916 127.587C646.13 130.113 651.805 131.405 657.792 131.405C665.475 131.405 672.327 129.571 678.176 125.96C681.683 123.78 684.809 121.058 687.497 117.793L687.405 130.159C687.405 135.881 685.928 140.369 682.998 143.495C680.08 146.621 676.146 148.132 670.966 148.132H631.445L627.557 165.24H671.07C676.077 165.24 680.714 164.398 684.855 162.748C689.02 161.075 692.654 158.664 695.641 155.573C698.629 152.493 700.959 148.755 702.574 144.475C704.166 140.23 704.974 135.408 704.974 130.148V35.6123H687.405V47.6095ZM685.305 95.1369C683.921 98.9783 681.994 102.335 679.583 105.115C677.184 107.861 674.312 110.018 671.035 111.518C667.771 113.017 664.102 113.779 660.111 113.779C656.12 113.779 652.451 113.017 649.187 111.518C645.899 110.006 643.015 107.872 640.627 105.185C638.216 102.474 636.29 99.1513 634.917 95.3214C633.533 91.4685 632.829 87.131 632.829 82.4591C632.829 78.1562 633.556 74.0495 634.986 70.2542C636.428 66.4589 638.389 63.1136 640.812 60.3334C643.223 57.5764 646.118 55.35 649.417 53.7234C652.671 52.12 656.258 51.3125 660.111 51.3125C663.964 51.3125 667.759 52.0738 671.035 53.5735C674.312 55.0847 677.196 57.2188 679.595 59.9066C682.006 62.6291 683.932 65.9167 685.317 69.7005C686.701 73.5073 687.405 77.7409 687.405 82.286C687.405 86.8311 686.701 91.2839 685.317 95.1484L685.305 95.1369Z" fill="#111111"/>
<path d="M803.953 81.9131C803.953 74.8994 802.892 68.3817 800.793 62.5446C798.682 56.6729 795.636 51.5741 791.749 47.3635C787.861 43.1529 783.143 39.8076 777.756 37.4312C772.345 35.0433 766.301 33.832 759.795 33.832C753.288 33.832 747.232 35.0433 741.833 37.4312C736.423 39.8191 731.739 43.1991 727.898 47.4904C724.08 51.7586 721.069 56.9497 718.969 62.9253C716.87 68.8662 715.809 75.43 715.809 82.4553C715.809 89.4806 716.87 96.4021 718.958 102.343C721.057 108.319 724.057 113.533 727.875 117.859C731.716 122.208 736.388 125.599 741.753 127.929C747.105 130.248 753.115 131.436 759.621 131.436C770.004 131.436 778.967 128.633 786.269 123.096C793.56 117.57 798.728 109.703 801.623 99.7244L802.546 96.529H785.104L784.493 98.1324C782.497 103.335 779.348 107.511 775.126 110.522C770.938 113.521 765.955 115.044 760.314 115.044C756.415 115.044 752.838 114.363 749.666 113.014C746.505 111.675 743.714 109.749 741.383 107.28C739.03 104.789 737.138 101.789 735.777 98.3632C734.681 95.6061 733.943 92.5491 733.574 89.2384H803.953V81.9362V81.9131ZM733.608 74.4264C733.989 71.4617 734.739 68.6585 735.846 66.063C737.265 62.7522 739.145 59.8913 741.441 57.5842C743.714 55.277 746.448 53.4544 749.574 52.1739C752.7 50.8819 756.138 50.2244 759.806 50.2244C767.431 50.2244 773.407 52.5661 778.067 57.3881C782.22 61.6794 784.896 67.4011 786.05 74.4264H733.62H733.608Z" fill="#111111"/>
</g>
<defs>
<clipPath id="clip0_3114_5330">
<rect width="803.951" height="165.25" fill="white"/>
</clipPath>
</defs>
</svg>
